<?xml version="1.0" encoding="UTF-8" standalone="no"?>
<svg
   xmlns:dc="http://purl.org/dc/elements/1.1/"
   xmlns:cc="http://creativecommons.org/ns#"
   xmlns:rdf="http://www.w3.org/1999/02/22-rdf-syntax-ns#"
   xmlns:svg="http://www.w3.org/2000/svg"
   xmlns="http://www.w3.org/2000/svg"
   xmlns:xlink="http://www.w3.org/1999/xlink"
   xmlns:sodipodi="http://sodipodi.sourceforge.net/DTD/sodipodi-0.dtd"
   xmlns:inkscape="http://www.inkscape.org/namespaces/inkscape"
   width="75.279549mm"
   height="67.254898mm"
   viewBox="0 0 75.279549 67.254898"
   version="1.1"
   id="svg3088"
   inkscape:version="1.0.2-2 (e86c870879, 2021-01-15)"
   sodipodi:docname="6pp-ocm-cell-exmpl.svg">
  <defs
     id="defs3082">
    <radialGradient
       inkscape:collect="always"
       xlink:href="#linearGradient2712"
       id="radialGradient2714"
       cx="155"
       cy="45"
       fx="155"
       fy="45"
       r="5.2499995"
       gradientUnits="userSpaceOnUse"
       gradientTransform="translate(-92.85625,-20.95797)" />
    <linearGradient
       inkscape:collect="always"
       id="linearGradient2712">
      <stop
         style="stop-color:#000000;stop-opacity:1;"
         offset="0"
         id="stop2708" />
      <stop
         style="stop-color:#000000;stop-opacity:0;"
         offset="1"
         id="stop2710" />
    </linearGradient>
    <marker
       style="overflow:visible"
       id="Arrow1Mstart"
       refX="0"
       refY="0"
       orient="auto"
       inkscape:stockid="Arrow1Mstart"
       inkscape:isstock="true">
      <path
         transform="matrix(0.4,0,0,0.4,4,0)"
         style="fill:#000000;fill-opacity:1;fill-rule:evenodd;stroke:#000000;stroke-width:1pt;stroke-opacity:1"
         d="M 0,0 5,-5 -12.5,0 5,5 Z"
         id="path1153" />
    </marker>
    <marker
       style="overflow:visible"
       id="Arrow1Mend"
       refX="0"
       refY="0"
       orient="auto"
       inkscape:stockid="Arrow1Mend"
       inkscape:isstock="true"
       inkscape:collect="always">
      <path
         transform="matrix(-0.4,0,0,-0.4,-4,0)"
         style="fill:#000000;fill-opacity:1;fill-rule:evenodd;stroke:#000000;stroke-width:1pt;stroke-opacity:1"
         d="M 0,0 5,-5 -12.5,0 5,5 Z"
         id="path1156" />
    </marker>
    <marker
       style="overflow:visible"
       id="marker1479"
       refX="0"
       refY="0"
       orient="auto"
       inkscape:stockid="Arrow1Mend"
       inkscape:isstock="true">
      <path
         transform="matrix(-0.4,0,0,-0.4,-4,0)"
         style="fill:#000000;fill-opacity:1;fill-rule:evenodd;stroke:#000000;stroke-width:1pt;stroke-opacity:1"
         d="M 0,0 5,-5 -12.5,0 5,5 Z"
         id="path1477" />
    </marker>
    <radialGradient
       inkscape:collect="always"
       xlink:href="#linearGradient2712"
       id="radialGradient2714-9"
       cx="155"
       cy="45"
       fx="155"
       fy="45"
       r="5.2499995"
       gradientUnits="userSpaceOnUse"
       gradientTransform="translate(-92.973957,-10.957971)" />
    <radialGradient
       inkscape:collect="always"
       xlink:href="#linearGradient2712"
       id="radialGradient2714-7"
       cx="155"
       cy="45"
       fx="155"
       fy="45"
       r="5.2499995"
       gradientUnits="userSpaceOnUse"
       gradientTransform="translate(-92.973961,-0.95797127)" />
    <radialGradient
       inkscape:collect="always"
       xlink:href="#linearGradient2712"
       id="radialGradient2714-3"
       cx="155"
       cy="45"
       fx="155"
       fy="45"
       r="5.2499995"
       gradientUnits="userSpaceOnUse"
       gradientTransform="translate(-82.473952,-0.95797127)" />
    <radialGradient
       inkscape:collect="always"
       xlink:href="#linearGradient2712"
       id="radialGradient2714-33"
       cx="155"
       cy="45"
       fx="155"
       fy="45"
       r="5.2499995"
       gradientUnits="userSpaceOnUse"
       gradientTransform="translate(-92.973955,19.042027)" />
    <radialGradient
       inkscape:collect="always"
       xlink:href="#linearGradient2712"
       id="radialGradient2714-35"
       cx="155"
       cy="45"
       fx="155"
       fy="45"
       r="5.2499995"
       gradientUnits="userSpaceOnUse"
       gradientTransform="translate(-92.973951,29.04203)" />
    <radialGradient
       inkscape:collect="always"
       xlink:href="#linearGradient2712"
       id="radialGradient2714-1"
       cx="155"
       cy="45"
       fx="155"
       fy="45"
       r="5.2499995"
       gradientUnits="userSpaceOnUse"
       gradientTransform="translate(-102.97396,29.042027)" />
    <radialGradient
       inkscape:collect="always"
       xlink:href="#linearGradient2712"
       id="radialGradient2714-16"
       cx="155"
       cy="45"
       fx="155"
       fy="45"
       r="5.2499995"
       gradientUnits="userSpaceOnUse"
       gradientTransform="translate(-112.97396,29.04203)" />
    <g
       id="g2762">
      <symbol
         overflow="visible"
         id="symbol2740">
        <path
           style="stroke:none;stroke-width:0"
           d=""
           id="path2738" />
      </symbol>
      <symbol
         overflow="visible"
         id="symbol2744">
        <path
           style="stroke:none;stroke-width:0"
           d="m 3.296875,2.390625 c 0,-0.03125 0,-0.046875 -0.171875,-0.21875 C 1.890625,0.921875 1.5625,-0.96875 1.5625,-2.5 c 0,-1.734375 0.375,-3.46875 1.609375,-4.703125 0.125,-0.125 0.125,-0.140625 0.125,-0.171875 0,-0.078125 -0.03125,-0.109375 -0.09375,-0.109375 -0.109375,0 -1,0.6875 -1.59375,1.953125 -0.5,1.09375 -0.625,2.203125 -0.625,3.03125 0,0.78125 0.109375,1.984375 0.65625,3.125 C 2.25,1.84375 3.09375,2.5 3.203125,2.5 c 0.0625,0 0.09375,-0.03125 0.09375,-0.109375 z m 0,0"
           id="path2742" />
      </symbol>
      <symbol
         overflow="visible"
         id="symbol2748">
        <path
           style="stroke:none;stroke-width:0"
           d="m 4.578125,-3.1875 c 0,-0.796875 -0.046875,-1.59375 -0.390625,-2.328125 -0.453125,-0.96875 -1.28125,-1.125 -1.6875,-1.125 -0.609375,0 -1.328125,0.265625 -1.75,1.1875 -0.3125,0.6875 -0.359375,1.46875 -0.359375,2.265625 0,0.75 0.03125,1.640625 0.453125,2.40625 0.421875,0.796875 1.15625,1 1.640625,1 0.53125,0 1.296875,-0.203125 1.734375,-1.15625 0.3125,-0.6875 0.359375,-1.46875 0.359375,-2.25 z M 2.484375,0 C 2.09375,0 1.5,-0.25 1.328125,-1.203125 1.21875,-1.796875 1.21875,-2.71875 1.21875,-3.3125 c 0,-0.640625 0,-1.296875 0.078125,-1.828125 0.1875,-1.1875 0.9375,-1.28125 1.1875,-1.28125 0.328125,0 0.984375,0.1875 1.171875,1.171875 0.109375,0.5625 0.109375,1.3125 0.109375,1.9375 0,0.75 0,1.421875 -0.109375,2.0625 C 3.5,-0.296875 2.9375,0 2.484375,0 Z m 0,0"
           id="path2746" />
      </symbol>
      <symbol
         overflow="visible"
         id="symbol2752">
        <path
           style="stroke:none;stroke-width:0"
           d="m 2.875,-2.5 c 0,-0.765625 -0.109375,-1.96875 -0.65625,-3.109375 -0.59375,-1.21875 -1.453125,-1.875 -1.546875,-1.875 -0.0625,0 -0.109375,0.046875 -0.109375,0.109375 0,0.03125 0,0.046875 0.1875,0.234375 0.984375,0.984375 1.546875,2.5625 1.546875,4.640625 0,1.71875 -0.359375,3.46875 -1.59375,4.71875 C 0.5625,2.34375 0.5625,2.359375 0.5625,2.390625 0.5625,2.453125 0.609375,2.5 0.671875,2.5 0.765625,2.5 1.671875,1.8125 2.25,0.546875 2.765625,-0.546875 2.875,-1.65625 2.875,-2.5 Z m 0,0"
           id="path2750" />
      </symbol>
      <symbol
         overflow="visible"
         id="symbol2756">
        <path
           style="stroke:none;stroke-width:0"
           d=""
           id="path2754" />
      </symbol>
      <symbol
         overflow="visible"
         id="symbol2760">
        <path
           style="stroke:none;stroke-width:0"
           d="m 2.03125,-0.015625 c 0,-0.65625 -0.25,-1.046875 -0.640625,-1.046875 -0.328125,0 -0.53125,0.25 -0.53125,0.53125 C 0.859375,-0.265625 1.0625,0 1.390625,0 1.5,0 1.640625,-0.046875 1.734375,-0.125 1.765625,-0.15625 1.78125,-0.15625 1.78125,-0.15625 c 0.015625,0 0.015625,0 0.015625,0.140625 0,0.75 -0.34375,1.34375 -0.671875,1.671875 -0.109375,0.109375 -0.109375,0.125 -0.109375,0.15625 0,0.078125 0.046875,0.109375 0.09375,0.109375 0.109375,0 0.921875,-0.765625 0.921875,-1.9375 z m 0,0"
           id="path2758" />
      </symbol>
    </g>
    <g
       id="g2808">
      <symbol
         overflow="visible"
         id="symbol2782">
        <path
           style="stroke:none"
           d=""
           id="path2780" />
      </symbol>
      <symbol
         overflow="visible"
         id="symbol2786">
        <path
           style="stroke:none"
           d="m 3.296875,2.390625 c 0,-0.03125 0,-0.046875 -0.171875,-0.21875 C 1.890625,0.921875 1.5625,-0.96875 1.5625,-2.5 c 0,-1.734375 0.375,-3.46875 1.609375,-4.703125 0.125,-0.125 0.125,-0.140625 0.125,-0.171875 0,-0.078125 -0.03125,-0.109375 -0.09375,-0.109375 -0.109375,0 -1,0.6875 -1.59375,1.953125 -0.5,1.09375 -0.625,2.203125 -0.625,3.03125 0,0.78125 0.109375,1.984375 0.65625,3.125 C 2.25,1.84375 3.09375,2.5 3.203125,2.5 c 0.0625,0 0.09375,-0.03125 0.09375,-0.109375 z m 0,0"
           id="path2784" />
      </symbol>
      <symbol
         overflow="visible"
         id="symbol2790">
        <path
           style="stroke:none"
           d="m 4.578125,-3.1875 c 0,-0.796875 -0.046875,-1.59375 -0.390625,-2.328125 -0.453125,-0.96875 -1.28125,-1.125 -1.6875,-1.125 -0.609375,0 -1.328125,0.265625 -1.75,1.1875 -0.3125,0.6875 -0.359375,1.46875 -0.359375,2.265625 0,0.75 0.03125,1.640625 0.453125,2.40625 0.421875,0.796875 1.15625,1 1.640625,1 0.53125,0 1.296875,-0.203125 1.734375,-1.15625 0.3125,-0.6875 0.359375,-1.46875 0.359375,-2.25 z M 2.484375,0 C 2.09375,0 1.5,-0.25 1.328125,-1.203125 1.21875,-1.796875 1.21875,-2.71875 1.21875,-3.3125 c 0,-0.640625 0,-1.296875 0.078125,-1.828125 0.1875,-1.1875 0.9375,-1.28125 1.1875,-1.28125 0.328125,0 0.984375,0.1875 1.171875,1.171875 0.109375,0.5625 0.109375,1.3125 0.109375,1.9375 0,0.75 0,1.421875 -0.109375,2.0625 C 3.5,-0.296875 2.9375,0 2.484375,0 Z m 0,0"
           id="path2788" />
      </symbol>
      <symbol
         overflow="visible"
         id="symbol2794">
        <path
           style="stroke:none"
           d="m 2.875,-2.5 c 0,-0.765625 -0.109375,-1.96875 -0.65625,-3.109375 -0.59375,-1.21875 -1.453125,-1.875 -1.546875,-1.875 -0.0625,0 -0.109375,0.046875 -0.109375,0.109375 0,0.03125 0,0.046875 0.1875,0.234375 0.984375,0.984375 1.546875,2.5625 1.546875,4.640625 0,1.71875 -0.359375,3.46875 -1.59375,4.71875 C 0.5625,2.34375 0.5625,2.359375 0.5625,2.390625 0.5625,2.453125 0.609375,2.5 0.671875,2.5 0.765625,2.5 1.671875,1.8125 2.25,0.546875 2.765625,-0.546875 2.875,-1.65625 2.875,-2.5 Z m 0,0"
           id="path2792" />
      </symbol>
      <symbol
         overflow="visible"
         id="symbol2798">
        <path
           style="stroke:none"
           d=""
           id="path2796" />
      </symbol>
      <symbol
         overflow="visible"
         id="symbol2802">
        <path
           style="stroke:none"
           d="m 2.03125,-0.015625 c 0,-0.65625 -0.25,-1.046875 -0.640625,-1.046875 -0.328125,0 -0.53125,0.25 -0.53125,0.53125 C 0.859375,-0.265625 1.0625,0 1.390625,0 1.5,0 1.640625,-0.046875 1.734375,-0.125 1.765625,-0.15625 1.78125,-0.15625 1.78125,-0.15625 c 0.015625,0 0.015625,0 0.015625,0.140625 0,0.75 -0.34375,1.34375 -0.671875,1.671875 -0.109375,0.109375 -0.109375,0.125 -0.109375,0.15625 0,0.078125 0.046875,0.109375 0.09375,0.109375 0.109375,0 0.921875,-0.765625 0.921875,-1.9375 z m 0,0"
           id="path2800" />
      </symbol>
      <symbol
         overflow="visible"
         id="symbol2806">
        <path
           style="stroke:none"
           d="m 0.875,-0.59375 c -0.03125,0.15625 -0.09375,0.390625 -0.09375,0.4375 0,0.171875 0.140625,0.265625 0.296875,0.265625 0.125,0 0.296875,-0.078125 0.375,-0.28125 0,-0.015625 0.125,-0.484375 0.1875,-0.734375 l 0.21875,-0.890625 C 1.90625,-2.03125 1.96875,-2.25 2.03125,-2.46875 c 0.03125,-0.171875 0.109375,-0.46875 0.125,-0.5 0.140625,-0.3125 0.671875,-1.21875 1.625,-1.21875 0.453125,0 0.53125,0.375 0.53125,0.703125 0,0.609375 -0.484375,1.890625 -0.640625,2.3125 C 3.578125,-0.9375 3.5625,-0.8125 3.5625,-0.703125 c 0,0.46875 0.359375,0.8125 0.828125,0.8125 0.9375,0 1.296875,-1.453125 1.296875,-1.53125 0,-0.109375 -0.078125,-0.109375 -0.109375,-0.109375 -0.109375,0 -0.109375,0.03125 -0.15625,0.1875 -0.203125,0.671875 -0.53125,1.234375 -1.015625,1.234375 -0.171875,0 -0.234375,-0.09375 -0.234375,-0.328125 0,-0.25 0.078125,-0.484375 0.171875,-0.703125 0.1875,-0.53125 0.609375,-1.625 0.609375,-2.203125 0,-0.65625 -0.421875,-1.0625 -1.140625,-1.0625 -0.90625,0 -1.390625,0.640625 -1.5625,0.875 -0.046875,-0.5625 -0.453125,-0.875 -0.921875,-0.875 -0.453125,0 -0.640625,0.390625 -0.734375,0.5625 C 0.421875,-3.5 0.296875,-2.90625 0.296875,-2.875 c 0,0.109375 0.09375,0.109375 0.109375,0.109375 0.109375,0 0.109375,-0.015625 0.171875,-0.234375 0.171875,-0.703125 0.375,-1.1875 0.734375,-1.1875 0.1875,0 0.296875,0.125 0.296875,0.453125 0,0.21875 -0.03125,0.328125 -0.15625,0.84375 z m 0,0"
           id="path2804" />
      </symbol>
    </g>
    <g
       id="g2855">
      <symbol
         overflow="visible"
         id="symbol2829">
        <path
           style="stroke:none"
           d=""
           id="path2827" />
      </symbol>
      <symbol
         overflow="visible"
         id="symbol2833">
        <path
           style="stroke:none"
           d="m 3.296875,2.390625 c 0,-0.03125 0,-0.046875 -0.171875,-0.21875 C 1.890625,0.921875 1.5625,-0.96875 1.5625,-2.5 c 0,-1.734375 0.375,-3.46875 1.609375,-4.703125 0.125,-0.125 0.125,-0.140625 0.125,-0.171875 0,-0.078125 -0.03125,-0.109375 -0.09375,-0.109375 -0.109375,0 -1,0.6875 -1.59375,1.953125 -0.5,1.09375 -0.625,2.203125 -0.625,3.03125 0,0.78125 0.109375,1.984375 0.65625,3.125 C 2.25,1.84375 3.09375,2.5 3.203125,2.5 c 0.0625,0 0.09375,-0.03125 0.09375,-0.109375 z m 0,0"
           id="path2831" />
      </symbol>
      <symbol
         overflow="visible"
         id="symbol2837">
        <path
           style="stroke:none"
           d="m 4.578125,-3.1875 c 0,-0.796875 -0.046875,-1.59375 -0.390625,-2.328125 -0.453125,-0.96875 -1.28125,-1.125 -1.6875,-1.125 -0.609375,0 -1.328125,0.265625 -1.75,1.1875 -0.3125,0.6875 -0.359375,1.46875 -0.359375,2.265625 0,0.75 0.03125,1.640625 0.453125,2.40625 0.421875,0.796875 1.15625,1 1.640625,1 0.53125,0 1.296875,-0.203125 1.734375,-1.15625 0.3125,-0.6875 0.359375,-1.46875 0.359375,-2.25 z M 2.484375,0 C 2.09375,0 1.5,-0.25 1.328125,-1.203125 1.21875,-1.796875 1.21875,-2.71875 1.21875,-3.3125 c 0,-0.640625 0,-1.296875 0.078125,-1.828125 0.1875,-1.1875 0.9375,-1.28125 1.1875,-1.28125 0.328125,0 0.984375,0.1875 1.171875,1.171875 0.109375,0.5625 0.109375,1.3125 0.109375,1.9375 0,0.75 0,1.421875 -0.109375,2.0625 C 3.5,-0.296875 2.9375,0 2.484375,0 Z m 0,0"
           id="path2835" />
      </symbol>
      <symbol
         overflow="visible"
         id="symbol2841">
        <path
           style="stroke:none"
           d="m 2.875,-2.5 c 0,-0.765625 -0.109375,-1.96875 -0.65625,-3.109375 -0.59375,-1.21875 -1.453125,-1.875 -1.546875,-1.875 -0.0625,0 -0.109375,0.046875 -0.109375,0.109375 0,0.03125 0,0.046875 0.1875,0.234375 0.984375,0.984375 1.546875,2.5625 1.546875,4.640625 0,1.71875 -0.359375,3.46875 -1.59375,4.71875 C 0.5625,2.34375 0.5625,2.359375 0.5625,2.390625 0.5625,2.453125 0.609375,2.5 0.671875,2.5 0.765625,2.5 1.671875,1.8125 2.25,0.546875 2.765625,-0.546875 2.875,-1.65625 2.875,-2.5 Z m 0,0"
           id="path2839" />
      </symbol>
      <symbol
         overflow="visible"
         id="symbol2845">
        <path
           style="stroke:none"
           d=""
           id="path2843" />
      </symbol>
      <symbol
         overflow="visible"
         id="symbol2849">
        <path
           style="stroke:none"
           d="m 0.875,-0.59375 c -0.03125,0.15625 -0.09375,0.390625 -0.09375,0.4375 0,0.171875 0.140625,0.265625 0.296875,0.265625 0.125,0 0.296875,-0.078125 0.375,-0.28125 0,-0.015625 0.125,-0.484375 0.1875,-0.734375 l 0.21875,-0.890625 C 1.90625,-2.03125 1.96875,-2.25 2.03125,-2.46875 c 0.03125,-0.171875 0.109375,-0.46875 0.125,-0.5 0.140625,-0.3125 0.671875,-1.21875 1.625,-1.21875 0.453125,0 0.53125,0.375 0.53125,0.703125 0,0.609375 -0.484375,1.890625 -0.640625,2.3125 C 3.578125,-0.9375 3.5625,-0.8125 3.5625,-0.703125 c 0,0.46875 0.359375,0.8125 0.828125,0.8125 0.9375,0 1.296875,-1.453125 1.296875,-1.53125 0,-0.109375 -0.078125,-0.109375 -0.109375,-0.109375 -0.109375,0 -0.109375,0.03125 -0.15625,0.1875 -0.203125,0.671875 -0.53125,1.234375 -1.015625,1.234375 -0.171875,0 -0.234375,-0.09375 -0.234375,-0.328125 0,-0.25 0.078125,-0.484375 0.171875,-0.703125 0.1875,-0.53125 0.609375,-1.625 0.609375,-2.203125 0,-0.65625 -0.421875,-1.0625 -1.140625,-1.0625 -0.90625,0 -1.390625,0.640625 -1.5625,0.875 -0.046875,-0.5625 -0.453125,-0.875 -0.921875,-0.875 -0.453125,0 -0.640625,0.390625 -0.734375,0.5625 C 0.421875,-3.5 0.296875,-2.90625 0.296875,-2.875 c 0,0.109375 0.09375,0.109375 0.109375,0.109375 0.109375,0 0.109375,-0.015625 0.171875,-0.234375 0.171875,-0.703125 0.375,-1.1875 0.734375,-1.1875 0.1875,0 0.296875,0.125 0.296875,0.453125 0,0.21875 -0.03125,0.328125 -0.15625,0.84375 z m 0,0"
           id="path2847" />
      </symbol>
      <symbol
         overflow="visible"
         id="symbol2853">
        <path
           style="stroke:none"
           d="m 2.03125,-0.015625 c 0,-0.65625 -0.25,-1.046875 -0.640625,-1.046875 -0.328125,0 -0.53125,0.25 -0.53125,0.53125 C 0.859375,-0.265625 1.0625,0 1.390625,0 1.5,0 1.640625,-0.046875 1.734375,-0.125 1.765625,-0.15625 1.78125,-0.15625 1.78125,-0.15625 c 0.015625,0 0.015625,0 0.015625,0.140625 0,0.75 -0.34375,1.34375 -0.671875,1.671875 -0.109375,0.109375 -0.109375,0.125 -0.109375,0.15625 0,0.078125 0.046875,0.109375 0.09375,0.109375 0.109375,0 0.921875,-0.765625 0.921875,-1.9375 z m 0,0"
           id="path2851" />
      </symbol>
    </g>
    <g
       id="g2897">
      <symbol
         overflow="visible"
         id="symbol2875">
        <path
           style="stroke:none"
           d=""
           id="path2873" />
      </symbol>
      <symbol
         overflow="visible"
         id="symbol2879">
        <path
           style="stroke:none"
           d="m 3.296875,2.390625 c 0,-0.03125 0,-0.046875 -0.171875,-0.21875 C 1.890625,0.921875 1.5625,-0.96875 1.5625,-2.5 c 0,-1.734375 0.375,-3.46875 1.609375,-4.703125 0.125,-0.125 0.125,-0.140625 0.125,-0.171875 0,-0.078125 -0.03125,-0.109375 -0.09375,-0.109375 -0.109375,0 -1,0.6875 -1.59375,1.953125 -0.5,1.09375 -0.625,2.203125 -0.625,3.03125 0,0.78125 0.109375,1.984375 0.65625,3.125 C 2.25,1.84375 3.09375,2.5 3.203125,2.5 c 0.0625,0 0.09375,-0.03125 0.09375,-0.109375 z m 0,0"
           id="path2877" />
      </symbol>
      <symbol
         overflow="visible"
         id="symbol2883">
        <path
           style="stroke:none"
           d="m 2.875,-2.5 c 0,-0.765625 -0.109375,-1.96875 -0.65625,-3.109375 -0.59375,-1.21875 -1.453125,-1.875 -1.546875,-1.875 -0.0625,0 -0.109375,0.046875 -0.109375,0.109375 0,0.03125 0,0.046875 0.1875,0.234375 0.984375,0.984375 1.546875,2.5625 1.546875,4.640625 0,1.71875 -0.359375,3.46875 -1.59375,4.71875 C 0.5625,2.34375 0.5625,2.359375 0.5625,2.390625 0.5625,2.453125 0.609375,2.5 0.671875,2.5 0.765625,2.5 1.671875,1.8125 2.25,0.546875 2.765625,-0.546875 2.875,-1.65625 2.875,-2.5 Z m 0,0"
           id="path2881" />
      </symbol>
      <symbol
         overflow="visible"
         id="symbol2887">
        <path
           style="stroke:none"
           d=""
           id="path2885" />
      </symbol>
      <symbol
         overflow="visible"
         id="symbol2891">
        <path
           style="stroke:none"
           d="m 0.875,-0.59375 c -0.03125,0.15625 -0.09375,0.390625 -0.09375,0.4375 0,0.171875 0.140625,0.265625 0.296875,0.265625 0.125,0 0.296875,-0.078125 0.375,-0.28125 0,-0.015625 0.125,-0.484375 0.1875,-0.734375 l 0.21875,-0.890625 C 1.90625,-2.03125 1.96875,-2.25 2.03125,-2.46875 c 0.03125,-0.171875 0.109375,-0.46875 0.125,-0.5 0.140625,-0.3125 0.671875,-1.21875 1.625,-1.21875 0.453125,0 0.53125,0.375 0.53125,0.703125 0,0.609375 -0.484375,1.890625 -0.640625,2.3125 C 3.578125,-0.9375 3.5625,-0.8125 3.5625,-0.703125 c 0,0.46875 0.359375,0.8125 0.828125,0.8125 0.9375,0 1.296875,-1.453125 1.296875,-1.53125 0,-0.109375 -0.078125,-0.109375 -0.109375,-0.109375 -0.109375,0 -0.109375,0.03125 -0.15625,0.1875 -0.203125,0.671875 -0.53125,1.234375 -1.015625,1.234375 -0.171875,0 -0.234375,-0.09375 -0.234375,-0.328125 0,-0.25 0.078125,-0.484375 0.171875,-0.703125 0.1875,-0.53125 0.609375,-1.625 0.609375,-2.203125 0,-0.65625 -0.421875,-1.0625 -1.140625,-1.0625 -0.90625,0 -1.390625,0.640625 -1.5625,0.875 -0.046875,-0.5625 -0.453125,-0.875 -0.921875,-0.875 -0.453125,0 -0.640625,0.390625 -0.734375,0.5625 C 0.421875,-3.5 0.296875,-2.90625 0.296875,-2.875 c 0,0.109375 0.09375,0.109375 0.109375,0.109375 0.109375,0 0.109375,-0.015625 0.171875,-0.234375 0.171875,-0.703125 0.375,-1.1875 0.734375,-1.1875 0.1875,0 0.296875,0.125 0.296875,0.453125 0,0.21875 -0.03125,0.328125 -0.15625,0.84375 z m 0,0"
           id="path2889" />
      </symbol>
      <symbol
         overflow="visible"
         id="symbol2895">
        <path
           style="stroke:none"
           d="m 2.03125,-0.015625 c 0,-0.65625 -0.25,-1.046875 -0.640625,-1.046875 -0.328125,0 -0.53125,0.25 -0.53125,0.53125 C 0.859375,-0.265625 1.0625,0 1.390625,0 1.5,0 1.640625,-0.046875 1.734375,-0.125 1.765625,-0.15625 1.78125,-0.15625 1.78125,-0.15625 c 0.015625,0 0.015625,0 0.015625,0.140625 0,0.75 -0.34375,1.34375 -0.671875,1.671875 -0.109375,0.109375 -0.109375,0.125 -0.109375,0.15625 0,0.078125 0.046875,0.109375 0.09375,0.109375 0.109375,0 0.921875,-0.765625 0.921875,-1.9375 z m 0,0"
           id="path2893" />
      </symbol>
    </g>
  </defs>
  <sodipodi:namedview
     id="base"
     pagecolor="#ffffff"
     bordercolor="#666666"
     borderopacity="1.0"
     inkscape:pageopacity="0.0"
     inkscape:pageshadow="2"
     inkscape:zoom="1.979899"
     inkscape:cx="192.40462"
     inkscape:cy="137.89208"
     inkscape:document-units="mm"
     inkscape:current-layer="layer1"
     inkscape:document-rotation="0"
     showgrid="false"
     inkscape:window-width="1920"
     inkscape:window-height="1017"
     inkscape:window-x="-8"
     inkscape:window-y="-8"
     inkscape:window-maximized="1" />
  <metadata
     id="metadata3085">
    <rdf:RDF>
      <cc:Work
         rdf:about="">
        <dc:format>image/svg+xml</dc:format>
        <dc:type
           rdf:resource="http://purl.org/dc/dcmitype/StillImage" />
        <dc:title></dc:title>
      </cc:Work>
    </rdf:RDF>
  </metadata>
  <g
     inkscape:label="Layer 1"
     inkscape:groupmode="layer"
     id="layer1"
     transform="translate(-27.852149,-12.772468)">
    <path
       style="fill:none;stroke:#000000;stroke-width:0.5;stroke-linecap:butt;stroke-linejoin:miter;stroke-miterlimit:4;stroke-dasharray:none;stroke-opacity:1"
       d="M 87.276049,19.04203 V 79.042025"
       id="path1001-9" />
    <path
       style="fill:none;stroke:#000000;stroke-width:0.5;stroke-linecap:butt;stroke-linejoin:miter;stroke-miterlimit:4;stroke-dasharray:none;stroke-opacity:1"
       d="M 37.276039,79.042025 V 19.04203 h 60.00001 v 59.999995 z"
       id="path979-0" />
    <path
       style="fill:none;stroke:#000000;stroke-width:0.5;stroke-linecap:butt;stroke-linejoin:miter;stroke-miterlimit:4;stroke-dasharray:none;stroke-opacity:1"
       d="m 37.276039,29.04203 h 60.00001"
       id="path983-5" />
    <path
       style="fill:none;stroke:#000000;stroke-width:0.5;stroke-linecap:butt;stroke-linejoin:miter;stroke-miterlimit:4;stroke-dasharray:none;stroke-opacity:1"
       d="m 37.276039,39.042035 h 60.00001"
       id="path985-2" />
    <path
       style="fill:none;stroke:#000000;stroke-width:0.5;stroke-linecap:butt;stroke-linejoin:miter;stroke-miterlimit:4;stroke-dasharray:none;stroke-opacity:1"
       d="m 37.276039,49.042035 h 60.00001"
       id="path987-3" />
    <path
       style="fill:none;stroke:#000000;stroke-width:0.5;stroke-linecap:butt;stroke-linejoin:miter;stroke-miterlimit:4;stroke-dasharray:none;stroke-opacity:1"
       d="m 37.276039,59.042035 h 60.00001"
       id="path989-4" />
    <path
       style="fill:none;stroke:#000000;stroke-width:0.5;stroke-linecap:butt;stroke-linejoin:miter;stroke-miterlimit:4;stroke-dasharray:none;stroke-opacity:1"
       d="m 37.276039,69.042025 h 60.00001"
       id="path991-4" />
    <path
       style="fill:none;stroke:#000000;stroke-width:0.5;stroke-linecap:butt;stroke-linejoin:miter;stroke-miterlimit:4;stroke-dasharray:none;stroke-opacity:1"
       d="M 47.276039,19.04203 V 79.042025"
       id="path993-4" />
    <path
       style="fill:none;stroke:#000000;stroke-width:0.5;stroke-linecap:butt;stroke-linejoin:miter;stroke-miterlimit:4;stroke-dasharray:none;stroke-opacity:1"
       d="M 57.276039,19.04203 V 79.042025"
       id="path995-4" />
    <path
       style="fill:none;stroke:#000000;stroke-width:0.5;stroke-linecap:butt;stroke-linejoin:miter;stroke-miterlimit:4;stroke-dasharray:none;stroke-opacity:1"
       d="M 67.276039,19.04203 V 79.042025"
       id="path997-8" />
    <path
       style="fill:none;stroke:#000000;stroke-width:0.5;stroke-linecap:butt;stroke-linejoin:miter;stroke-miterlimit:4;stroke-dasharray:none;stroke-opacity:1"
       d="M 77.276039,19.04203 V 79.042025"
       id="path999-6" />
    <rect
       style="opacity:0.358065;fill:#000000;stroke:url(#radialGradient2714);stroke-width:0.499999;stroke-miterlimit:4;stroke-dasharray:none"
       id="rect1063"
       width="10"
       height="10"
       x="57.143742"
       y="19.042028" />
    <path
       style="fill:none;stroke:#000000;stroke-width:0.5;stroke-linecap:butt;stroke-linejoin:miter;stroke-miterlimit:4;stroke-dasharray:none;stroke-opacity:1;marker-start:url(#Arrow1Mstart);marker-end:url(#Arrow1Mend)"
       d="m 97.276045,14.042029 h -64.97359 -0.02642 v 64.999997"
       id="path1143"
       sodipodi:nodetypes="cccc" />
    <text
       xml:space="preserve"
       style="font-size:4.23333px;line-height:1.25;font-family:Cambria;-inkscape-font-specification:Cambria;stroke-width:0.264583"
       x="101.13286"
       y="17.127945"
       id="text2702"><tspan
         sodipodi:role="line"
         id="tspan2700"
         x="101.13286"
         y="17.127945"
         style="stroke-width:0.264583">x</tspan></text>
    <text
       xml:space="preserve"
       style="font-size:4.23333px;line-height:1.25;font-family:Cambria;-inkscape-font-specification:Cambria;stroke-width:0.264583"
       x="27.810808"
       y="78.06366"
       id="text2706"><tspan
         sodipodi:role="line"
         id="tspan2704"
         x="27.810808"
         y="78.06366"
         style="stroke-width:0.264583">y</tspan></text>
    <rect
       style="opacity:0.358065;fill:#000000;stroke:url(#radialGradient2714-9);stroke-width:0.499999;stroke-miterlimit:4;stroke-dasharray:none"
       id="rect1063-9"
       width="10"
       height="10"
       x="57.026035"
       y="29.042028" />
    <rect
       style="opacity:0.358065;fill:#000000;stroke:url(#radialGradient2714-7);stroke-width:0.499999;stroke-miterlimit:4;stroke-dasharray:none"
       id="rect1063-1"
       width="10"
       height="10"
       x="57.026035"
       y="39.04203" />
    <rect
       style="opacity:0.358065;fill:#000000;stroke:url(#radialGradient2714-3);stroke-width:0.499999;stroke-miterlimit:4;stroke-dasharray:none"
       id="rect1063-10"
       width="10"
       height="10"
       x="67.526031"
       y="39.04203" />
    <rect
       style="opacity:0.358065;fill:#000000;stroke:url(#radialGradient2714-33);stroke-width:0.499999;stroke-miterlimit:4;stroke-dasharray:none"
       id="rect1063-3"
       width="10"
       height="10"
       x="57.026035"
       y="59.04203" />
    <rect
       style="opacity:0.358065;fill:#000000;stroke:url(#radialGradient2714-35);stroke-width:0.499999;stroke-miterlimit:4;stroke-dasharray:none"
       id="rect1063-0"
       width="10"
       height="10"
       x="57.026035"
       y="69.042023" />
    <rect
       style="opacity:0.358065;fill:#000000;stroke:url(#radialGradient2714-1);stroke-width:0.499999;stroke-miterlimit:4;stroke-dasharray:none"
       id="rect1063-4"
       width="10"
       height="10"
       x="47.026043"
       y="69.042023" />
    <rect
       style="opacity:0.358065;fill:#000000;stroke:url(#radialGradient2714-16);stroke-width:0.499999;stroke-miterlimit:4;stroke-dasharray:none"
       id="rect1063-6"
       width="10"
       height="10"
       x="37.026043"
       y="69.042023" />
    <text
       xml:space="preserve"
       style="font-size:4.23333px;line-height:1.25;font-family:Cambria;-inkscape-font-specification:Cambria;stroke-width:0.264583"
       x="41.179409"
       y="25.41329"
       id="text2835"><tspan
         sodipodi:role="line"
         id="tspan2833"
         x="41.179409"
         y="25.41329"
         style="stroke-width:0.264583">0</tspan></text>
    <text
       xml:space="preserve"
       style="font-size:4.23333px;line-height:1.25;font-family:Cambria;-inkscape-font-specification:Cambria;stroke-width:0.264583"
       x="51.080479"
       y="25.41329"
       id="text2835-5"><tspan
         sodipodi:role="line"
         id="tspan2833-3"
         x="51.080479"
         y="25.41329"
         style="stroke-width:0.264583">0</tspan></text>
    <text
       xml:space="preserve"
       style="font-size:4.23333px;line-height:1.25;font-family:Cambria;-inkscape-font-specification:Cambria;stroke-width:0.264583"
       x="41.179409"
       y="35.180145"
       id="text2835-4"><tspan
         sodipodi:role="line"
         id="tspan2833-4"
         x="41.179409"
         y="35.180145"
         style="stroke-width:0.264583">0</tspan></text>
    <text
       xml:space="preserve"
       style="font-size:4.23333px;line-height:1.25;font-family:Cambria;-inkscape-font-specification:Cambria;stroke-width:0.264583"
       x="51.080479"
       y="35.180145"
       id="text2835-5-6"><tspan
         sodipodi:role="line"
         id="tspan2833-3-4"
         x="51.080479"
         y="35.180145"
         style="stroke-width:0.264583">0</tspan></text>
    <text
       xml:space="preserve"
       style="font-size:4.23333px;line-height:1.25;font-family:Cambria;-inkscape-font-specification:Cambria;stroke-width:0.264583"
       x="41.179409"
       y="45.476158"
       id="text2835-8"><tspan
         sodipodi:role="line"
         id="tspan2833-7"
         x="41.179409"
         y="45.476158"
         style="stroke-width:0.264583">0</tspan></text>
    <text
       xml:space="preserve"
       style="font-size:4.23333px;line-height:1.25;font-family:Cambria;-inkscape-font-specification:Cambria;stroke-width:0.264583"
       x="51.080479"
       y="45.476158"
       id="text2835-5-5"><tspan
         sodipodi:role="line"
         id="tspan2833-3-0"
         x="51.080479"
         y="45.476158"
         style="stroke-width:0.264583">0</tspan></text>
    <text
       xml:space="preserve"
       style="font-size:4.23333px;line-height:1.25;font-family:Cambria;-inkscape-font-specification:Cambria;stroke-width:0.264583"
       x="41.179409"
       y="55.243004"
       id="text2835-4-2"><tspan
         sodipodi:role="line"
         id="tspan2833-4-9"
         x="41.179409"
         y="55.243004"
         style="stroke-width:0.264583">0</tspan></text>
    <text
       xml:space="preserve"
       style="font-size:4.23333px;line-height:1.25;font-family:Cambria;-inkscape-font-specification:Cambria;stroke-width:0.264583"
       x="51.080479"
       y="55.243004"
       id="text2835-5-6-2"><tspan
         sodipodi:role="line"
         id="tspan2833-3-4-2"
         x="51.080479"
         y="55.243004"
         style="stroke-width:0.264583">0</tspan></text>
    <text
       xml:space="preserve"
       style="font-size:4.23333px;line-height:1.25;font-family:Cambria;-inkscape-font-specification:Cambria;stroke-width:0.264583"
       x="41.179409"
       y="65.539032"
       id="text2835-4-2-4"><tspan
         sodipodi:role="line"
         id="tspan2833-4-9-2"
         x="41.179409"
         y="65.539032"
         style="stroke-width:0.264583">0</tspan></text>
    <text
       xml:space="preserve"
       style="font-size:4.23333px;line-height:1.25;font-family:Cambria;-inkscape-font-specification:Cambria;stroke-width:0.264583"
       x="51.080479"
       y="65.539032"
       id="text2835-5-6-2-6"><tspan
         sodipodi:role="line"
         id="tspan2833-3-4-2-7"
         x="51.080479"
         y="65.539032"
         style="stroke-width:0.264583">0</tspan></text>
    <text
       xml:space="preserve"
       style="font-size:4.23333px;line-height:1.25;font-family:Cambria;-inkscape-font-specification:Cambria;stroke-width:0.264583"
       x="71.405502"
       y="25.354071"
       id="text2835-9"><tspan
         sodipodi:role="line"
         id="tspan2833-39"
         x="71.405502"
         y="25.354071"
         style="stroke-width:0.264583">0</tspan></text>
    <text
       xml:space="preserve"
       style="font-size:4.23333px;line-height:1.25;font-family:Cambria;-inkscape-font-specification:Cambria;stroke-width:0.264583"
       x="81.30658"
       y="25.354071"
       id="text2835-5-4"><tspan
         sodipodi:role="line"
         id="tspan2833-3-6"
         x="81.30658"
         y="25.354071"
         style="stroke-width:0.264583">0</tspan></text>
    <text
       xml:space="preserve"
       style="font-size:4.23333px;line-height:1.25;font-family:Cambria;-inkscape-font-specification:Cambria;stroke-width:0.264583"
       x="71.405502"
       y="35.120926"
       id="text2835-9-6"><tspan
         sodipodi:role="line"
         id="tspan2833-39-8"
         x="71.405502"
         y="35.120926"
         style="stroke-width:0.264583">0</tspan></text>
    <text
       xml:space="preserve"
       style="font-size:4.23333px;line-height:1.25;font-family:Cambria;-inkscape-font-specification:Cambria;stroke-width:0.264583"
       x="81.30658"
       y="35.120926"
       id="text2835-5-4-6"><tspan
         sodipodi:role="line"
         id="tspan2833-3-6-8"
         x="81.30658"
         y="35.120926"
         style="stroke-width:0.264583">0</tspan></text>
    <text
       xml:space="preserve"
       style="font-size:4.23333px;line-height:1.25;font-family:Cambria;-inkscape-font-specification:Cambria;stroke-width:0.264583"
       x="81.30658"
       y="45.416939"
       id="text2835-9-1"><tspan
         sodipodi:role="line"
         id="tspan2833-39-1"
         x="81.30658"
         y="45.416939"
         style="stroke-width:0.264583">0</tspan></text>
    <text
       xml:space="preserve"
       style="font-size:4.23333px;line-height:1.25;font-family:Cambria;-inkscape-font-specification:Cambria;stroke-width:0.264583"
       x="91.207657"
       y="45.416939"
       id="text2835-5-4-1"><tspan
         sodipodi:role="line"
         id="tspan2833-3-6-5"
         x="91.207657"
         y="45.416939"
         style="stroke-width:0.264583">0</tspan></text>
    <text
       xml:space="preserve"
       style="font-size:4.23333px;line-height:1.25;font-family:Cambria;-inkscape-font-specification:Cambria;stroke-width:0.264583"
       x="81.30658"
       y="55.1838"
       id="text2835-9-4"><tspan
         sodipodi:role="line"
         id="tspan2833-39-3"
         x="81.30658"
         y="55.1838"
         style="stroke-width:0.264583">0</tspan></text>
    <text
       xml:space="preserve"
       style="font-size:4.23333px;line-height:1.25;font-family:Cambria;-inkscape-font-specification:Cambria;stroke-width:0.264583"
       x="91.207657"
       y="55.1838"
       id="text2835-5-4-7"><tspan
         sodipodi:role="line"
         id="tspan2833-3-6-53"
         x="91.207657"
         y="55.1838"
         style="stroke-width:0.264583">0</tspan></text>
    <text
       xml:space="preserve"
       style="font-size:4.23333px;line-height:1.25;font-family:Cambria;-inkscape-font-specification:Cambria;stroke-width:0.264583"
       x="81.30658"
       y="65.479813"
       id="text2835-9-43"><tspan
         sodipodi:role="line"
         id="tspan2833-39-0"
         x="81.30658"
         y="65.479813"
         style="stroke-width:0.264583">0</tspan></text>
    <text
       xml:space="preserve"
       style="font-size:4.23333px;line-height:1.25;font-family:Cambria;-inkscape-font-specification:Cambria;stroke-width:0.264583"
       x="91.207657"
       y="65.479813"
       id="text2835-5-4-5"><tspan
         sodipodi:role="line"
         id="tspan2833-3-6-80"
         x="91.207657"
         y="65.479813"
         style="stroke-width:0.264583">0</tspan></text>
    <text
       xml:space="preserve"
       style="font-size:4.23333px;line-height:1.25;font-family:Cambria;-inkscape-font-specification:Cambria;stroke-width:0.264583"
       x="81.30658"
       y="75.246658"
       id="text2835-9-8"><tspan
         sodipodi:role="line"
         id="tspan2833-39-82"
         x="81.30658"
         y="75.246658"
         style="stroke-width:0.264583">0</tspan></text>
    <text
       xml:space="preserve"
       style="font-size:4.23333px;line-height:1.25;font-family:Cambria;-inkscape-font-specification:Cambria;stroke-width:0.264583"
       x="91.207657"
       y="75.246658"
       id="text2835-5-4-3"><tspan
         sodipodi:role="line"
         id="tspan2833-3-6-9"
         x="91.207657"
         y="75.246658"
         style="stroke-width:0.264583">0</tspan></text>
    <text
       xml:space="preserve"
       style="font-size:4.23333px;line-height:1.25;font-family:Cambria;-inkscape-font-specification:Cambria;stroke-width:0.264583"
       x="60.828617"
       y="55.243004"
       id="text2835-9-9"><tspan
         sodipodi:role="line"
         id="tspan2833-39-2"
         x="60.828617"
         y="55.243004"
         style="stroke-width:0.264583">0</tspan></text>
    <text
       xml:space="preserve"
       style="font-size:4.23333px;line-height:1.25;font-family:Cambria;-inkscape-font-specification:Cambria;stroke-width:0.264583"
       x="70.729691"
       y="55.243004"
       id="text2835-5-4-4"><tspan
         sodipodi:role="line"
         id="tspan2833-3-6-3"
         x="70.729691"
         y="55.243004"
         style="stroke-width:0.264583">0</tspan></text>
    <text
       xml:space="preserve"
       style="font-size:4.23333px;line-height:1.25;font-family:Cambria;-inkscape-font-specification:Cambria;stroke-width:0.264583"
       x="91.207657"
       y="25.354071"
       id="text2835-5-4-9"><tspan
         sodipodi:role="line"
         id="tspan2833-3-6-88"
         x="91.207657"
         y="25.354071"
         style="stroke-width:0.264583">0</tspan></text>
    <text
       xml:space="preserve"
       style="font-size:4.23333px;line-height:1.25;font-family:Cambria;-inkscape-font-specification:Cambria;stroke-width:0.264583"
       x="91.207657"
       y="35.120926"
       id="text2835-5-4-6-8"><tspan
         sodipodi:role="line"
         id="tspan2833-3-6-8-8"
         x="91.207657"
         y="35.120926"
         style="stroke-width:0.264583">0</tspan></text>
    <text
       xml:space="preserve"
       style="font-size:4.23333px;line-height:1.25;font-family:Cambria;-inkscape-font-specification:Cambria;stroke-width:0.264583"
       x="71.029282"
       y="65.479813"
       id="text2835-5-4-56"><tspan
         sodipodi:role="line"
         id="tspan2833-3-6-2"
         x="71.029282"
         y="65.479813"
         style="stroke-width:0.264583">0</tspan></text>
    <text
       xml:space="preserve"
       style="font-size:4.23333px;line-height:1.25;font-family:Cambria;-inkscape-font-specification:Cambria;stroke-width:0.264583"
       x="71.029282"
       y="75.246658"
       id="text2835-5-4-6-5"><tspan
         sodipodi:role="line"
         id="tspan2833-3-6-8-0"
         x="71.029282"
         y="75.246658"
         style="stroke-width:0.264583">0</tspan></text>
    <text
       xml:space="preserve"
       style="font-size:4.23333px;line-height:1.25;font-family:Cambria;-inkscape-font-specification:Cambria;stroke-width:0.264583"
       x="60.953114"
       y="25.469328"
       id="text2831-2"><tspan
         sodipodi:role="line"
         id="tspan2829-3"
         x="60.953114"
         y="25.469328"
         style="stroke-width:0.264583">1</tspan></text>
    <text
       xml:space="preserve"
       style="font-size:4.23333px;line-height:1.25;font-family:Cambria;-inkscape-font-specification:Cambria;stroke-width:0.264583"
       x="60.835407"
       y="35.100365"
       id="text2831-20"><tspan
         sodipodi:role="line"
         id="tspan2829-0"
         x="60.835407"
         y="35.100365"
         style="stroke-width:0.264583">1</tspan></text>
    <text
       xml:space="preserve"
       style="font-size:4.23333px;line-height:1.25;font-family:Cambria;-inkscape-font-specification:Cambria;stroke-width:0.264583"
       x="60.857334"
       y="45.134796"
       id="text2831-20-5"><tspan
         sodipodi:role="line"
         id="tspan2829-0-2"
         x="60.857334"
         y="45.134796"
         style="stroke-width:0.264583">1</tspan></text>
    <text
       xml:space="preserve"
       style="font-size:4.23333px;line-height:1.25;font-family:Cambria;-inkscape-font-specification:Cambria;stroke-width:0.264583"
       x="70.969254"
       y="45.134796"
       id="text2831-20-8"><tspan
         sodipodi:role="line"
         id="tspan2829-0-24"
         x="70.969254"
         y="45.134796"
         style="stroke-width:0.264583">1</tspan></text>
    <text
       xml:space="preserve"
       style="font-size:4.23333px;line-height:1.25;font-family:Cambria;-inkscape-font-specification:Cambria;stroke-width:0.264583"
       x="60.835407"
       y="65.46933"
       id="text2831-20-8-9"><tspan
         sodipodi:role="line"
         id="tspan2829-0-24-4"
         x="60.835407"
         y="65.46933"
         style="stroke-width:0.264583">1</tspan></text>
    <text
       xml:space="preserve"
       style="font-size:4.23333px;line-height:1.25;font-family:Cambria;-inkscape-font-specification:Cambria;stroke-width:0.264583"
       x="60.835407"
       y="75.46933"
       id="text2831-20-8-1"><tspan
         sodipodi:role="line"
         id="tspan2829-0-24-6"
         x="60.835407"
         y="75.46933"
         style="stroke-width:0.264583">1</tspan></text>
    <text
       xml:space="preserve"
       style="font-size:4.23333px;line-height:1.25;font-family:Cambria;-inkscape-font-specification:Cambria;stroke-width:0.264583"
       x="50.835407"
       y="75.46933"
       id="text2831-20-8-6"><tspan
         sodipodi:role="line"
         id="tspan2829-0-24-0"
         x="50.835407"
         y="75.46933"
         style="stroke-width:0.264583">1</tspan></text>
    <text
       xml:space="preserve"
       style="font-size:4.23333px;line-height:1.25;font-family:Cambria;-inkscape-font-specification:Cambria;stroke-width:0.264583"
       x="40.835407"
       y="75.46933"
       id="text2831-20-8-2"><tspan
         sodipodi:role="line"
         id="tspan2829-0-24-8"
         x="40.835407"
         y="75.46933"
         style="stroke-width:0.264583">1</tspan></text>
  </g>
</svg>
