<?xml version="1.0" encoding="UTF-8" standalone="no"?>
<svg
   xmlns:ns8="http://www.iki.fi/pav/software/textext/"
   xmlns:dc="http://purl.org/dc/elements/1.1/"
   xmlns:cc="http://creativecommons.org/ns#"
   xmlns:rdf="http://www.w3.org/1999/02/22-rdf-syntax-ns#"
   xmlns:svg="http://www.w3.org/2000/svg"
   xmlns="http://www.w3.org/2000/svg"
   xmlns:sodipodi="http://sodipodi.sourceforge.net/DTD/sodipodi-0.dtd"
   xmlns:inkscape="http://www.inkscape.org/namespaces/inkscape"
   width="210mm"
   height="297mm"
   viewBox="0 0 210 297"
   version="1.1"
   id="svg8"
   inkscape:version="1.0.2-2 (e86c870879, 2021-01-15)"
   sodipodi:docname="dd_only.svg">
  <defs
     id="defs2">
    <rect
       x="104.6994"
       y="118.02307"
       width="41.010417"
       height="18.237351"
       id="rect106" />
    <rect
       x="51.215774"
       y="87.595982"
       width="33.734375"
       height="14.363095"
       id="rect3032" />
    <rect
       x="58.491816"
       y="96.005953"
       width="23.718006"
       height="12.473214"
       id="rect3022" />
    <marker
       style="overflow:visible"
       id="marker2593"
       refX="0.0"
       refY="0.0"
       orient="auto"
       inkscape:stockid="Arrow1Lstart"
       inkscape:isstock="true">
      <path
         transform="scale(0.8) translate(12.5,0)"
         style="fill-rule:evenodd;stroke:#000000;stroke-width:1pt;stroke-opacity:1;fill:#000000;fill-opacity:1"
         d="M 0.0,0.0 L 5.0,-5.0 L -12.5,0.0 L 5.0,5.0 L 0.0,0.0 z "
         id="path2591" />
    </marker>
    <marker
       style="overflow:visible"
       id="marker2505"
       refX="0"
       refY="0"
       orient="auto"
       inkscape:stockid="Arrow1Lend"
       inkscape:isstock="true">
      <path
         transform="matrix(-0.8,0,0,-0.8,-10,0)"
         style="fill:#000000;fill-opacity:1;fill-rule:evenodd;stroke:#000000;stroke-width:1pt;stroke-opacity:1"
         d="M 0,0 5,-5 -12.5,0 5,5 Z"
         id="path2503" />
    </marker>
    <marker
       style="overflow:visible;"
       id="marker2411"
       refX="0.0"
       refY="0.0"
       orient="auto"
       inkscape:stockid="Arrow1Lend"
       inkscape:isstock="true">
      <path
         transform="scale(0.8) rotate(180) translate(12.5,0)"
         style="fill-rule:evenodd;stroke:#000000;stroke-width:1pt;stroke-opacity:1;fill:#000000;fill-opacity:1"
         d="M 0.0,0.0 L 5.0,-5.0 L -12.5,0.0 L 5.0,5.0 L 0.0,0.0 z "
         id="path2409" />
    </marker>
    <marker
       style="overflow:visible;"
       id="marker2291"
       refX="0.0"
       refY="0.0"
       orient="auto"
       inkscape:stockid="Arrow1Lend"
       inkscape:isstock="true">
      <path
         transform="scale(0.8) rotate(180) translate(12.5,0)"
         style="fill-rule:evenodd;stroke:#000000;stroke-width:1pt;stroke-opacity:1;fill:#000000;fill-opacity:1"
         d="M 0.0,0.0 L 5.0,-5.0 L -12.5,0.0 L 5.0,5.0 L 0.0,0.0 z "
         id="path2289" />
    </marker>
    <marker
       style="overflow:visible;"
       id="marker2150"
       refX="0.0"
       refY="0.0"
       orient="auto"
       inkscape:stockid="Arrow1Lend"
       inkscape:isstock="true">
      <path
         transform="scale(0.8) rotate(180) translate(12.5,0)"
         style="fill-rule:evenodd;stroke:#000000;stroke-width:1pt;stroke-opacity:1;fill:#000000;fill-opacity:1"
         d="M 0.0,0.0 L 5.0,-5.0 L -12.5,0.0 L 5.0,5.0 L 0.0,0.0 z "
         id="path2148" />
    </marker>
    <marker
       style="overflow:visible"
       id="Arrow1Lstart-8"
       refX="0"
       refY="0"
       orient="auto"
       inkscape:stockid="Arrow1Lstart"
       inkscape:isstock="true">
      <path
         transform="matrix(0.8,0,0,0.8,10,0)"
         style="fill:#000000;fill-opacity:1;fill-rule:evenodd;stroke:#000000;stroke-width:1pt;stroke-opacity:1"
         d="M 0,0 5,-5 -12.5,0 5,5 Z"
         id="path835-1" />
    </marker>
    <marker
       style="overflow:visible"
       id="Arrow1Lend-8"
       refX="0"
       refY="0"
       orient="auto"
       inkscape:stockid="Arrow1Lend"
       inkscape:isstock="true"
       inkscape:collect="always">
      <path
         transform="matrix(-0.8,0,0,-0.8,-10,0)"
         style="fill:#000000;fill-opacity:1;fill-rule:evenodd;stroke:#000000;stroke-width:1pt;stroke-opacity:1"
         d="M 0,0 5,-5 -12.5,0 5,5 Z"
         id="path838-6" />
    </marker>
    <marker
       style="overflow:visible"
       id="marker1588-9"
       refX="0"
       refY="0"
       orient="auto"
       inkscape:stockid="Arrow1Lend"
       inkscape:isstock="true">
      <path
         transform="matrix(-0.8,0,0,-0.8,-10,0)"
         style="fill:#000000;fill-opacity:1;fill-rule:evenodd;stroke:#000000;stroke-width:1pt;stroke-opacity:1"
         d="M 0,0 5,-5 -12.5,0 5,5 Z"
         id="path1586-2" />
    </marker>
    <marker
       style="overflow:visible"
       id="marker1588-9-8"
       refX="0"
       refY="0"
       orient="auto"
       inkscape:stockid="Arrow1Lend"
       inkscape:isstock="true">
      <path
         transform="matrix(-0.8,0,0,-0.8,-10,0)"
         style="fill:#000000;fill-opacity:1;fill-rule:evenodd;stroke:#000000;stroke-width:1pt;stroke-opacity:1"
         d="M 0,0 5,-5 -12.5,0 5,5 Z"
         id="path1586-2-1" />
    </marker>
    <marker
       style="overflow:visible"
       id="marker1588-9-2"
       refX="0"
       refY="0"
       orient="auto"
       inkscape:stockid="Arrow1Lend"
       inkscape:isstock="true">
      <path
         transform="matrix(-0.8,0,0,-0.8,-10,0)"
         style="fill:#000000;fill-opacity:1;fill-rule:evenodd;stroke:#000000;stroke-width:1pt;stroke-opacity:1"
         d="M 0,0 5,-5 -12.5,0 5,5 Z"
         id="path1586-2-0" />
    </marker>
    <defs
       id="id-b4052061-ddb6-47d1-9b50-d4d3c7c46454">
      <g
         id="id-c83a985c-db1b-46fb-b8b4-5b5aeea192cc">
        <symbol
           overflow="visible"
           id="id-78511f69-7dd5-4a9c-97a9-5a542acbcf2d">
          <path
             style="stroke:none;stroke-width:0"
             d=""
             id="id-702cafbb-ecbd-4ecc-8de6-81f08f9885f6" />
        </symbol>
        <symbol
           overflow="visible"
           id="id-cd5ef13b-f6e7-445d-aa1f-6105dcdc44fc">
          <path
             style="stroke:none;stroke-width:0"
             d="M 3.328125,-3.015625 C 3.390625,-3.265625 3.625,-4.1875 4.3125,-4.1875 c 0.046875,0 0.296875,0 0.5,0.125 C 4.53125,-4 4.34375,-3.765625 4.34375,-3.515625 c 0,0.15625 0.109375,0.34375 0.375,0.34375 0.21875,0 0.53125,-0.171875 0.53125,-0.578125 0,-0.515625 -0.578125,-0.65625 -0.921875,-0.65625 -0.578125,0 -0.921875,0.53125 -1.046875,0.75 -0.25,-0.65625 -0.78125,-0.75 -1.078125,-0.75 -1.03125,0 -1.609375,1.28125 -1.609375,1.53125 0,0.109375 0.109375,0.109375 0.125,0.109375 0.078125,0 0.109375,-0.03125 0.125,-0.109375 0.34375,-1.0625 1,-1.3125 1.34375,-1.3125 0.1875,0 0.53125,0.09375 0.53125,0.671875 0,0.3125 -0.171875,0.96875 -0.53125,2.375 -0.15625,0.609375 -0.515625,1.03125 -0.953125,1.03125 -0.0625,0 -0.28125,0 -0.5,-0.125 0.25,-0.0625 0.46875,-0.265625 0.46875,-0.546875 0,-0.265625 -0.21875,-0.34375 -0.359375,-0.34375 -0.3125,0 -0.546875,0.25 -0.546875,0.578125 0,0.453125 0.484375,0.65625 0.921875,0.65625 0.671875,0 1.03125,-0.703125 1.046875,-0.75 0.125,0.359375 0.484375,0.75 1.078125,0.75 1.03125,0 1.59375,-1.28125 1.59375,-1.53125 0,-0.109375 -0.078125,-0.109375 -0.109375,-0.109375 -0.09375,0 -0.109375,0.046875 -0.140625,0.109375 -0.328125,1.078125 -1,1.3125 -1.3125,1.3125 -0.390625,0 -0.546875,-0.3125 -0.546875,-0.65625 0,-0.21875 0.046875,-0.4375 0.15625,-0.875 z m 0,0"
             id="id-7afa90f9-c367-4d34-af2f-d2bc3ee6fc70" />
        </symbol>
        <symbol
           overflow="visible"
           id="id-2b658ae4-ea18-460b-b453-113c6638b6fd">
          <path
             style="stroke:none;stroke-width:0"
             d="m 4.84375,-3.796875 c 0.046875,-0.140625 0.046875,-0.15625 0.046875,-0.234375 0,-0.171875 -0.140625,-0.265625 -0.296875,-0.265625 -0.09375,0 -0.25,0.0625 -0.34375,0.203125 -0.015625,0.0625 -0.109375,0.359375 -0.140625,0.546875 -0.078125,0.25 -0.140625,0.53125 -0.203125,0.796875 l -0.453125,1.796875 c -0.03125,0.140625 -0.46875,0.84375 -1.125,0.84375 -0.5,0 -0.609375,-0.4375 -0.609375,-0.8125 C 1.71875,-1.375 1.890625,-2 2.21875,-2.875 2.375,-3.28125 2.421875,-3.390625 2.421875,-3.59375 c 0,-0.4375 -0.3125,-0.8125 -0.8125,-0.8125 -0.953125,0 -1.3125,1.453125 -1.3125,1.53125 0,0.109375 0.09375,0.109375 0.109375,0.109375 0.109375,0 0.109375,-0.03125 0.15625,-0.1875 0.28125,-0.9375 0.671875,-1.234375 1.015625,-1.234375 0.078125,0 0.25,0 0.25,0.3125 0,0.25 -0.109375,0.515625 -0.171875,0.703125 -0.40625,1.0625 -0.578125,1.625 -0.578125,2.09375 0,0.890625 0.625,1.1875 1.21875,1.1875 0.390625,0 0.71875,-0.171875 1,-0.453125 -0.125,0.515625 -0.25,1.015625 -0.640625,1.546875 -0.265625,0.328125 -0.640625,0.625 -1.09375,0.625 -0.140625,0 -0.59375,-0.03125 -0.765625,-0.421875 0.15625,0 0.296875,0 0.421875,-0.125 C 1.328125,1.203125 1.421875,1.0625 1.421875,0.875 1.421875,0.5625 1.15625,0.53125 1.0625,0.53125 0.828125,0.53125 0.5,0.6875 0.5,1.171875 c 0,0.5 0.4375,0.875 1.0625,0.875 1.015625,0 2.046875,-0.90625 2.328125,-2.03125 z m 0,0"
             id="id-0d23019f-95aa-4f11-aab6-1b3aecf8bd3e" />
        </symbol>
        <symbol
           overflow="visible"
           id="id-1d22b04f-b044-4ae4-b746-c826a6ec01bd">
          <path
             style="stroke:none;stroke-width:0"
             d=""
             id="id-170ff9c6-0cce-4754-8fdd-8c7604348c3c" />
        </symbol>
        <symbol
           overflow="visible"
           id="id-5db1b5b8-e3cd-4570-b359-a3ee52cf7899">
          <path
             style="stroke:none;stroke-width:0"
             d="m 3.703125,-2.578125 c 0.03125,-0.09375 0.03125,-0.125 0.03125,-0.140625 0,-0.15625 -0.125,-0.21875 -0.234375,-0.21875 -0.15625,0 -0.296875,0.125 -0.328125,0.265625 -0.109375,-0.1875 -0.34375,-0.40625 -0.71875,-0.40625 -0.859375,0 -1.78125,0.9375 -1.78125,1.9375 0,0.71875 0.484375,1.140625 1.0625,1.140625 0.328125,0 0.625,-0.15625 0.875,-0.375 L 2.453125,0.25 C 2.375,0.546875 2.328125,0.734375 2.0625,0.96875 c -0.3125,0.25 -0.609375,0.25 -0.78125,0.25 -0.3125,0 -0.40625,-0.015625 -0.53125,-0.046875 0.171875,-0.078125 0.21875,-0.25 0.21875,-0.34375 0,-0.171875 -0.125,-0.25 -0.265625,-0.25 C 0.5,0.578125 0.296875,0.734375 0.296875,1 c 0,0.421875 0.609375,0.421875 1,0.421875 1.09375,0 1.546875,-0.5625 1.65625,-0.953125 z M 2.75,-0.921875 c -0.03125,0.09375 -0.03125,0.109375 -0.15625,0.25 C 2.359375,-0.375 2.015625,-0.1875 1.75,-0.1875 c -0.34375,0 -0.515625,-0.3125 -0.515625,-0.671875 0,-0.296875 0.1875,-1.078125 0.375,-1.390625 0.28125,-0.484375 0.609375,-0.625 0.84375,-0.625 0.5,0 0.625,0.515625 0.625,0.59375 0,0.015625 0,0.015625 -0.015625,0.09375 z m 0,0"
             id="id-386b6d36-04f7-4610-be0f-8d7406829e1c" />
        </symbol>
      </g>
    </defs>
    <defs
       id="id-8e1147b9-9bc2-47a5-ba9c-463bd068258e">
      <g
         id="id-d2b4ff30-7e19-4e99-bd8d-813cf5756ff9">
        <symbol
           overflow="visible"
           id="id-c7e020f5-9fd7-4eb6-a01f-7f4f7995f6a2">
          <path
             style="stroke:none;stroke-width:0"
             d=""
             id="id-bc703c9f-c8de-4773-b4ff-89ef39480091" />
        </symbol>
        <symbol
           overflow="visible"
           id="id-2efcdc44-2661-435a-b852-9afceb28d39f">
          <path
             style="stroke:none;stroke-width:0"
             d="M 3.328125,-3.015625 C 3.390625,-3.265625 3.625,-4.1875 4.3125,-4.1875 c 0.046875,0 0.296875,0 0.5,0.125 C 4.53125,-4 4.34375,-3.765625 4.34375,-3.515625 c 0,0.15625 0.109375,0.34375 0.375,0.34375 0.21875,0 0.53125,-0.171875 0.53125,-0.578125 0,-0.515625 -0.578125,-0.65625 -0.921875,-0.65625 -0.578125,0 -0.921875,0.53125 -1.046875,0.75 -0.25,-0.65625 -0.78125,-0.75 -1.078125,-0.75 -1.03125,0 -1.609375,1.28125 -1.609375,1.53125 0,0.109375 0.109375,0.109375 0.125,0.109375 0.078125,0 0.109375,-0.03125 0.125,-0.109375 0.34375,-1.0625 1,-1.3125 1.34375,-1.3125 0.1875,0 0.53125,0.09375 0.53125,0.671875 0,0.3125 -0.171875,0.96875 -0.53125,2.375 -0.15625,0.609375 -0.515625,1.03125 -0.953125,1.03125 -0.0625,0 -0.28125,0 -0.5,-0.125 0.25,-0.0625 0.46875,-0.265625 0.46875,-0.546875 0,-0.265625 -0.21875,-0.34375 -0.359375,-0.34375 -0.3125,0 -0.546875,0.25 -0.546875,0.578125 0,0.453125 0.484375,0.65625 0.921875,0.65625 0.671875,0 1.03125,-0.703125 1.046875,-0.75 0.125,0.359375 0.484375,0.75 1.078125,0.75 1.03125,0 1.59375,-1.28125 1.59375,-1.53125 0,-0.109375 -0.078125,-0.109375 -0.109375,-0.109375 -0.09375,0 -0.109375,0.046875 -0.140625,0.109375 -0.328125,1.078125 -1,1.3125 -1.3125,1.3125 -0.390625,0 -0.546875,-0.3125 -0.546875,-0.65625 0,-0.21875 0.046875,-0.4375 0.15625,-0.875 z m 0,0"
             id="id-7df605a9-359d-4bd5-9450-00ac09a8287c" />
        </symbol>
        <symbol
           overflow="visible"
           id="id-65cf5af1-d896-49fe-ae35-64126a5257af">
          <path
             style="stroke:none;stroke-width:0"
             d="m 4.84375,-3.796875 c 0.046875,-0.140625 0.046875,-0.15625 0.046875,-0.234375 0,-0.171875 -0.140625,-0.265625 -0.296875,-0.265625 -0.09375,0 -0.25,0.0625 -0.34375,0.203125 -0.015625,0.0625 -0.109375,0.359375 -0.140625,0.546875 -0.078125,0.25 -0.140625,0.53125 -0.203125,0.796875 l -0.453125,1.796875 c -0.03125,0.140625 -0.46875,0.84375 -1.125,0.84375 -0.5,0 -0.609375,-0.4375 -0.609375,-0.8125 C 1.71875,-1.375 1.890625,-2 2.21875,-2.875 2.375,-3.28125 2.421875,-3.390625 2.421875,-3.59375 c 0,-0.4375 -0.3125,-0.8125 -0.8125,-0.8125 -0.953125,0 -1.3125,1.453125 -1.3125,1.53125 0,0.109375 0.09375,0.109375 0.109375,0.109375 0.109375,0 0.109375,-0.03125 0.15625,-0.1875 0.28125,-0.9375 0.671875,-1.234375 1.015625,-1.234375 0.078125,0 0.25,0 0.25,0.3125 0,0.25 -0.109375,0.515625 -0.171875,0.703125 -0.40625,1.0625 -0.578125,1.625 -0.578125,2.09375 0,0.890625 0.625,1.1875 1.21875,1.1875 0.390625,0 0.71875,-0.171875 1,-0.453125 -0.125,0.515625 -0.25,1.015625 -0.640625,1.546875 -0.265625,0.328125 -0.640625,0.625 -1.09375,0.625 -0.140625,0 -0.59375,-0.03125 -0.765625,-0.421875 0.15625,0 0.296875,0 0.421875,-0.125 C 1.328125,1.203125 1.421875,1.0625 1.421875,0.875 1.421875,0.5625 1.15625,0.53125 1.0625,0.53125 0.828125,0.53125 0.5,0.6875 0.5,1.171875 c 0,0.5 0.4375,0.875 1.0625,0.875 1.015625,0 2.046875,-0.90625 2.328125,-2.03125 z m 0,0"
             id="id-0e34ee29-2ae3-457d-8aac-d32e5db8cd23" />
        </symbol>
        <symbol
           overflow="visible"
           id="id-d358c764-0eb9-4620-b3a4-512c417bfe95">
          <path
             style="stroke:none;stroke-width:0"
             d="M 6.265625,-5.671875 C 6.75,-6.453125 7.171875,-6.484375 7.53125,-6.5 c 0.125,-0.015625 0.140625,-0.171875 0.140625,-0.1875 0,-0.078125 -0.0625,-0.125 -0.140625,-0.125 -0.25,0 -0.546875,0.03125 -0.8125,0.03125 -0.328125,0 -0.671875,-0.03125 -0.984375,-0.03125 -0.0625,0 -0.1875,0 -0.1875,0.1875 0,0.109375 0.078125,0.125 0.15625,0.125 0.265625,0.015625 0.453125,0.125 0.453125,0.328125 0,0.15625 -0.140625,0.375 -0.140625,0.375 l -3.0625,4.875 -0.6875,-5.28125 C 2.265625,-6.375 2.5,-6.5 2.953125,-6.5 c 0.140625,0 0.25,0 0.25,-0.203125 0,-0.078125 -0.078125,-0.109375 -0.125,-0.109375 -0.40625,0 -0.828125,0.03125 -1.25,0.03125 -0.171875,0 -0.359375,0 -0.546875,0 -0.171875,0 -0.359375,-0.03125 -0.53125,-0.03125 -0.078125,0 -0.1875,0 -0.1875,0.1875 0,0.125 0.078125,0.125 0.25,0.125 0.546875,0 0.5625,0.09375 0.59375,0.34375 L 2.1875,-0.015625 C 2.21875,0.1875 2.265625,0.21875 2.390625,0.21875 c 0.15625,0 0.203125,-0.046875 0.28125,-0.171875 z m 0,0"
             id="id-564df951-db7d-4a7d-8420-b17908cc9d6f" />
        </symbol>
        <symbol
           overflow="visible"
           id="id-1878987e-e2bc-4342-887d-c6b523914419">
          <path
             style="stroke:none;stroke-width:0"
             d=""
             id="id-c4b07ad7-3603-4189-b5c4-3b781ff3800d" />
        </symbol>
        <symbol
           overflow="visible"
           id="id-4821c5a5-78ad-4ed2-bfcd-1163ebb9d8b3">
          <path
             style="stroke:none;stroke-width:0"
             d="M 1.96875,-4.625 C 1.96875,-4.640625 2,-4.734375 2,-4.734375 2,-4.78125 1.96875,-4.84375 1.875,-4.84375 c -0.140625,0 -0.71875,0.0625 -0.890625,0.078125 -0.046875,0 -0.140625,0.015625 -0.140625,0.15625 0,0.09375 0.09375,0.09375 0.171875,0.09375 0.34375,0 0.34375,0.0625 0.34375,0.109375 0,0.046875 -0.015625,0.09375 -0.03125,0.15625 l -0.875,3.4375 C 0.4375,-0.734375 0.4375,-0.65625 0.4375,-0.59375 c 0,0.453125 0.390625,0.65625 0.71875,0.65625 0.171875,0 0.390625,-0.046875 0.5625,-0.359375 C 1.875,-0.5625 1.96875,-0.96875 1.96875,-1 c 0,-0.09375 -0.09375,-0.09375 -0.109375,-0.09375 -0.109375,0 -0.125,0.046875 -0.140625,0.171875 C 1.625,-0.578125 1.484375,-0.125 1.1875,-0.125 1,-0.125 0.953125,-0.296875 0.953125,-0.46875 0.953125,-0.546875 0.96875,-0.671875 1,-0.75 Z m 0,0"
             id="id-f6ae3d5c-e3e1-4b53-bf57-494cc4cc763d" />
        </symbol>
        <symbol
           overflow="visible"
           id="id-3abefbae-ca0d-4a1c-9eb5-6441e9a55542">
          <path
             style="stroke:none;stroke-width:0"
             d="m 1.640625,-1.40625 c 0,-0.046875 0.171875,-0.671875 0.171875,-0.703125 0.015625,-0.0625 0.21875,-0.40625 0.453125,-0.578125 0.0625,-0.046875 0.25,-0.1875 0.5625,-0.1875 0.0625,0 0.234375,0 0.375,0.09375 -0.21875,0.0625 -0.296875,0.265625 -0.296875,0.390625 0,0.140625 0.109375,0.25 0.265625,0.25 0.171875,0 0.390625,-0.125 0.390625,-0.421875 0,-0.359375 -0.375,-0.515625 -0.734375,-0.515625 -0.359375,0 -0.671875,0.15625 -0.984375,0.5 -0.125,-0.421875 -0.546875,-0.5 -0.71875,-0.5 -0.25,0 -0.421875,0.171875 -0.546875,0.359375 -0.15625,0.265625 -0.25,0.671875 -0.25,0.71875 0,0.078125 0.09375,0.078125 0.125,0.078125 0.09375,0 0.09375,-0.015625 0.140625,-0.203125 0.109375,-0.421875 0.25,-0.75 0.515625,-0.75 0.1875,0 0.234375,0.15625 0.234375,0.34375 0,0.125 -0.0625,0.390625 -0.125,0.578125 -0.046875,0.1875 -0.109375,0.46875 -0.140625,0.625 L 0.84375,-0.4375 C 0.828125,-0.34375 0.78125,-0.171875 0.78125,-0.15625 0.78125,0 0.90625,0.0625 1.015625,0.0625 1.125,0.0625 1.265625,0 1.3125,-0.125 1.328125,-0.171875 1.40625,-0.484375 1.453125,-0.65625 Z m 0,0"
             id="id-407effce-8a01-4b1f-a115-d548247bd6b6" />
        </symbol>
      </g>
    </defs>
  </defs>
  <sodipodi:namedview
     id="base"
     pagecolor="#ffffff"
     bordercolor="#666666"
     borderopacity="1.0"
     inkscape:pageopacity="0.0"
     inkscape:pageshadow="2"
     inkscape:zoom="0.9899495"
     inkscape:cx="190.5953"
     inkscape:cy="577.15887"
     inkscape:document-units="mm"
     inkscape:current-layer="layer1"
     inkscape:document-rotation="0"
     showgrid="false"
     inkscape:window-width="1920"
     inkscape:window-height="1017"
     inkscape:window-x="-8"
     inkscape:window-y="-8"
     inkscape:window-maximized="1"
     inkscape:snap-midpoints="true" />
  <metadata
     id="metadata5">
    <rdf:RDF>
      <cc:Work
         rdf:about="">
        <dc:format>image/svg+xml</dc:format>
        <dc:type
           rdf:resource="http://purl.org/dc/dcmitype/StillImage" />
        <dc:title />
      </cc:Work>
    </rdf:RDF>
  </metadata>
  <g
     inkscape:label="Layer 1"
     inkscape:groupmode="layer"
     id="layer1">
    <text
       xml:space="preserve"
       id="text3020"
       style="fill:black;fill-opacity:1;line-height:1.25;stroke:none;font-family:sans-serif;font-style:normal;font-weight:normal;font-size:10.58333333px;white-space:pre;shape-inside:url(#rect3022);" />
    <text
       xml:space="preserve"
       id="text3030"
       style="line-height:1.25;font-family:'Cambria Math';font-size:10.58333333px;-inkscape-font-specification:'Cambria Math, Normal';white-space:pre;shape-inside:url(#rect3032);" />
    <text
       xml:space="preserve"
       id="text104"
       style="font-size:4.23333px;line-height:1.25;font-family:'Cambria Math';-inkscape-font-specification:'Cambria Math, Normal';white-space:pre;shape-inside:url(#rect106);" />
    <g
       id="g305"
       transform="matrix(2.0773099,0,0,2.0773099,-39.715518,-179.16269)"
       inkscape:export-xdpi="300"
       inkscape:export-ydpi="300">
      <rect
         style="fill:none;stroke:#000000;stroke-width:0.354;stroke-linejoin:round;stroke-miterlimit:4;stroke-dasharray:none"
         id="rect1257"
         width="19.646477"
         height="19.646477"
         x="-67.338013"
         y="140.73105"
         transform="rotate(-45)"
         inkscape:export-xdpi="96"
         inkscape:export-ydpi="96"
         inkscape:export-filename="C:\Users\The Godfather\rect1257.png" />
      <path
         style="fill:none;stroke:#000000;stroke-width:0.131061;stroke-linecap:butt;stroke-linejoin:miter;stroke-miterlimit:4;stroke-dasharray:none;stroke-opacity:1;marker-start:url(#Arrow1Lstart-8);marker-end:url(#Arrow1Lend-8)"
         d="m 47.465136,128.80331 18.323737,18.32374 19.70867,-19.70867"
         id="path10-1"
         inkscape:export-xdpi="96"
         inkscape:export-ydpi="96"
         inkscape:export-filename="C:\Users\The Godfather\rect1257.png" />
      <g
         id="g1940"
         transform="rotate(90,47.803675,123.92245)"
         inkscape:export-xdpi="96"
         inkscape:export-ydpi="96"
         inkscape:export-filename="C:\Users\The Godfather\rect1257.png">
        <g
           id="g1512"
           transform="rotate(-45,68.507868,104.02802)">
          <path
             style="fill:none;stroke:#000000;stroke-width:0.251434;stroke-linecap:butt;stroke-linejoin:miter;stroke-miterlimit:4;stroke-dasharray:none;stroke-opacity:1"
             d="M 53.453907,107.12397 H 83.453905"
             id="path1475" />
          <rect
             style="fill:none;stroke:#000000;stroke-width:0.356871;stroke-linejoin:round;stroke-miterlimit:4;stroke-dasharray:none"
             id="rect1477"
             width="1.1431285"
             height="10.954982"
             x="52.882343"
             y="101.64648" />
          <rect
             style="fill:none;stroke:#000000;stroke-width:0.356871;stroke-linejoin:round;stroke-miterlimit:4;stroke-dasharray:none"
             id="rect1477-0"
             width="1.1431285"
             height="10.954982"
             x="82.882339"
             y="101.64648" />
        </g>
      </g>
      <path
         style="fill:none;stroke:#000000;stroke-width:0.107509;stroke-linecap:butt;stroke-linejoin:miter;stroke-miterlimit:4;stroke-dasharray:none;stroke-opacity:1;marker-end:url(#marker1588-9-8)"
         d="m 75.643208,137.27271 c 0.06371,-0.0165 4.142068,-4.14207 4.142068,-4.14207"
         id="path1618-9-5"
         inkscape:export-xdpi="96"
         inkscape:export-ydpi="96"
         inkscape:export-filename="C:\Users\The Godfather\rect1257.png" />
      <g
         id="g2731"
         transform="rotate(45,19.161767,66.614641)"
         inkscape:export-xdpi="96"
         inkscape:export-ydpi="96"
         inkscape:export-filename="C:\Users\The Godfather\rect1257.png">
        <path
           id="path1966"
           style="fill:none;stroke:#000000;stroke-width:0.1;stroke-linejoin:round;stroke-miterlimit:4;stroke-dasharray:none"
           d="m 106.707,91.889935 c 0.12263,0.2261 0.27721,0.43335 0.45896,0.61535 1.04553,1.04567 2.74082,1.04567 3.78635,0 1.04533,-1.04559 1.04517,-2.7406 -3.6e-4,-3.78599 -0.40899,-0.4091 -0.93948,-0.67473 -1.51206,-0.75712"
           sodipodi:nodetypes="ccccc" />
        <path
           style="fill:none;stroke:#000000;stroke-width:0.097779px;stroke-linecap:butt;stroke-linejoin:miter;stroke-opacity:1;marker-start:url(#marker2593)"
           d="m 108.54941,87.962176 0.89048,-10e-7"
           id="path2685" />
      </g>
      <g
         transform="matrix(0.352778,0,0,0.352778,65.395047,150.10076)"
         ns8:version="1.3.1"
         ns8:texconverter="pdflatex"
         ns8:pdfconverter="inkscape"
         ns8:text="$$\\omega$$"
         ns8:preamble="C:\Users\The Godfather\AppData\Roaming\inkscape\extensions\textext\default_packages.tex"
         ns8:scale="1.0"
         ns8:alignment="middle center"
         ns8:inkscapeversion="1.0.2-2"
         ns8:jacobian_sqrt="0.352778"
         id="g1159"
         inkscape:export-xdpi="96"
         inkscape:export-ydpi="96"
         inkscape:export-filename="C:\Users\The Godfather\rect1257.png">
        <defs
           id="id-19f3f5c7-bb64-4e28-af57-7b24ab6cae28">
          <g
             id="id-aaa49bb9-47a4-41c8-8c16-bd21513d04ac">
            <symbol
               overflow="visible"
               id="id-fd32cd5a-8b89-454f-b245-0ae8e5bcf264">
              <path
                 style="stroke:none;stroke-width:0"
                 d=""
                 id="id-d1677696-1770-4c5a-8b05-c4f53d9c2ea2" />
            </symbol>
            <symbol
               overflow="visible"
               id="id-dc39fc20-a764-4bfb-a16b-56374fb8eebc">
              <path
                 style="stroke:none;stroke-width:0"
                 d="m 6.03125,-3.703125 c 0,-0.453125 -0.171875,-0.703125 -0.40625,-0.703125 -0.25,0 -0.515625,0.234375 -0.515625,0.46875 0,0.09375 0.046875,0.203125 0.140625,0.296875 0.171875,0.15625 0.359375,0.421875 0.359375,0.84375 0,0.390625 -0.203125,0.96875 -0.5,1.421875 C 4.8125,-0.953125 4.4375,-0.609375 3.96875,-0.609375 3.40625,-0.609375 3.09375,-0.96875 3,-1.5 c 0.109375,-0.265625 0.34375,-0.90625 0.34375,-1.1875 0,-0.109375 -0.046875,-0.21875 -0.1875,-0.21875 -0.078125,0 -0.1875,0.03125 -0.265625,0.171875 C 2.78125,-2.53125 2.65625,-1.890625 2.65625,-1.53125 2.328125,-1.0625 1.9375,-0.609375 1.3125,-0.609375 c -0.671875,0 -0.875,-0.59375 -0.875,-1.140625 0,-1.25 1.015625,-2.296875 1.015625,-2.421875 0,-0.109375 -0.078125,-0.1875 -0.1875,-0.1875 -0.125,0 -0.203125,0.125 -0.265625,0.21875 -0.5,0.734375 -0.875,1.921875 -0.875,2.828125 0,0.6875 0.21875,1.421875 1.046875,1.421875 0.703125,0 1.171875,-0.5 1.53125,-1.046875 0.09375,0.578125 0.484375,1.046875 1.09375,1.046875 0.78125,0 1.25,-0.609375 1.609375,-1.359375 0.25,-0.484375 0.625,-1.84375 0.625,-2.453125 z m 0,0"
                 id="id-e948cba3-25e3-4940-8abe-873971b6e703" />
            </symbol>
          </g>
        </defs>
        <g
           id="id-2b398c1f-121d-456e-8666-b84fd8e770bb"
           transform="translate(-302.47,-142.314)">
          <g
             style="fill:#000000;fill-opacity:1"
             id="id-4d8fa7a8-c012-4f43-a88d-441ecda97f67">
            <g
               transform="translate(302.345,146.72)"
               id="g1155">
              <path
                 style="stroke:none;stroke-width:0"
                 d="m 6.03125,-3.703125 c 0,-0.453125 -0.171875,-0.703125 -0.40625,-0.703125 -0.25,0 -0.515625,0.234375 -0.515625,0.46875 0,0.09375 0.046875,0.203125 0.140625,0.296875 0.171875,0.15625 0.359375,0.421875 0.359375,0.84375 0,0.390625 -0.203125,0.96875 -0.5,1.421875 C 4.8125,-0.953125 4.4375,-0.609375 3.96875,-0.609375 3.40625,-0.609375 3.09375,-0.96875 3,-1.5 c 0.109375,-0.265625 0.34375,-0.90625 0.34375,-1.1875 0,-0.109375 -0.046875,-0.21875 -0.1875,-0.21875 -0.078125,0 -0.1875,0.03125 -0.265625,0.171875 C 2.78125,-2.53125 2.65625,-1.890625 2.65625,-1.53125 2.328125,-1.0625 1.9375,-0.609375 1.3125,-0.609375 c -0.671875,0 -0.875,-0.59375 -0.875,-1.140625 0,-1.25 1.015625,-2.296875 1.015625,-2.421875 0,-0.109375 -0.078125,-0.1875 -0.1875,-0.1875 -0.125,0 -0.203125,0.125 -0.265625,0.21875 -0.5,0.734375 -0.875,1.921875 -0.875,2.828125 0,0.6875 0.21875,1.421875 1.046875,1.421875 0.703125,0 1.171875,-0.5 1.53125,-1.046875 0.09375,0.578125 0.484375,1.046875 1.09375,1.046875 0.78125,0 1.25,-0.609375 1.609375,-1.359375 0.25,-0.484375 0.625,-1.84375 0.625,-2.453125 z m 0,0"
                 id="id-faa2696c-631b-4775-816a-ea22c72bc7e1" />
            </g>
          </g>
        </g>
      </g>
      <g
         id="id-cf5e9158-f9bc-4ef9-b131-2852f0757b00"
         transform="matrix(0.352778,0,0,0.352778,-43.011335,59.243132)"
         inkscape:export-filename="C:\Users\The Godfather\rect1257.png"
         inkscape:export-xdpi="96"
         inkscape:export-ydpi="96">
        <g
           transform="matrix(0.352778,0,0,0.352778,273.73714,155.01742)"
           ns8:version="1.3.1"
           ns8:texconverter="pdflatex"
           ns8:pdfconverter="inkscape"
           ns8:text="$$x_l  y_l  v_r v_l v$$"
           ns8:preamble="C:\Users\The Godfather\AppData\Roaming\inkscape\extensions\textext\default_packages.tex"
           ns8:scale="1.0"
           ns8:alignment="middle center"
           ns8:inkscapeversion="1.0.2-2"
           ns8:jacobian_sqrt="0.352778"
           id="g1469"
           style="stroke-width:2.83643;stroke-miterlimit:4;stroke-dasharray:none">
          <defs
             id="id-b44c8bed-6156-4c5b-ad12-21a48d8ad4b6">
            <g
               id="id-1b5fe8a1-6182-4e70-bb71-72abbbd3487f">
              <symbol
                 overflow="visible"
                 id="id-02013393-cc99-4011-9284-5b83e57428d4">
                <path
                   style="stroke:none;stroke-width:0"
                   d=""
                   id="id-39ba030f-4853-4de5-bbad-158e3994fb03" />
              </symbol>
              <symbol
                 overflow="visible"
                 id="id-41aa75a7-c16b-4093-a32c-68309bf6fa07">
                <path
                   style="stroke:none;stroke-width:0"
                   d="M 3.328125,-3.015625 C 3.390625,-3.265625 3.625,-4.1875 4.3125,-4.1875 c 0.046875,0 0.296875,0 0.5,0.125 C 4.53125,-4 4.34375,-3.765625 4.34375,-3.515625 c 0,0.15625 0.109375,0.34375 0.375,0.34375 0.21875,0 0.53125,-0.171875 0.53125,-0.578125 0,-0.515625 -0.578125,-0.65625 -0.921875,-0.65625 -0.578125,0 -0.921875,0.53125 -1.046875,0.75 -0.25,-0.65625 -0.78125,-0.75 -1.078125,-0.75 -1.03125,0 -1.609375,1.28125 -1.609375,1.53125 0,0.109375 0.109375,0.109375 0.125,0.109375 0.078125,0 0.109375,-0.03125 0.125,-0.109375 0.34375,-1.0625 1,-1.3125 1.34375,-1.3125 0.1875,0 0.53125,0.09375 0.53125,0.671875 0,0.3125 -0.171875,0.96875 -0.53125,2.375 -0.15625,0.609375 -0.515625,1.03125 -0.953125,1.03125 -0.0625,0 -0.28125,0 -0.5,-0.125 0.25,-0.0625 0.46875,-0.265625 0.46875,-0.546875 0,-0.265625 -0.21875,-0.34375 -0.359375,-0.34375 -0.3125,0 -0.546875,0.25 -0.546875,0.578125 0,0.453125 0.484375,0.65625 0.921875,0.65625 0.671875,0 1.03125,-0.703125 1.046875,-0.75 0.125,0.359375 0.484375,0.75 1.078125,0.75 1.03125,0 1.59375,-1.28125 1.59375,-1.53125 0,-0.109375 -0.078125,-0.109375 -0.109375,-0.109375 -0.09375,0 -0.109375,0.046875 -0.140625,0.109375 -0.328125,1.078125 -1,1.3125 -1.3125,1.3125 -0.390625,0 -0.546875,-0.3125 -0.546875,-0.65625 0,-0.21875 0.046875,-0.4375 0.15625,-0.875 z m 0,0"
                   id="id-01a5737f-7313-4215-aaa5-8f62d8673c68" />
              </symbol>
              <symbol
                 overflow="visible"
                 id="id-6794ebbb-2fa5-4fd0-86ae-6a31c6740146">
                <path
                   style="stroke:none;stroke-width:0"
                   d="m 4.84375,-3.796875 c 0.046875,-0.140625 0.046875,-0.15625 0.046875,-0.234375 0,-0.171875 -0.140625,-0.265625 -0.296875,-0.265625 -0.09375,0 -0.25,0.0625 -0.34375,0.203125 -0.015625,0.0625 -0.109375,0.359375 -0.140625,0.546875 -0.078125,0.25 -0.140625,0.53125 -0.203125,0.796875 l -0.453125,1.796875 c -0.03125,0.140625 -0.46875,0.84375 -1.125,0.84375 -0.5,0 -0.609375,-0.4375 -0.609375,-0.8125 C 1.71875,-1.375 1.890625,-2 2.21875,-2.875 2.375,-3.28125 2.421875,-3.390625 2.421875,-3.59375 c 0,-0.4375 -0.3125,-0.8125 -0.8125,-0.8125 -0.953125,0 -1.3125,1.453125 -1.3125,1.53125 0,0.109375 0.09375,0.109375 0.109375,0.109375 0.109375,0 0.109375,-0.03125 0.15625,-0.1875 0.28125,-0.9375 0.671875,-1.234375 1.015625,-1.234375 0.078125,0 0.25,0 0.25,0.3125 0,0.25 -0.109375,0.515625 -0.171875,0.703125 -0.40625,1.0625 -0.578125,1.625 -0.578125,2.09375 0,0.890625 0.625,1.1875 1.21875,1.1875 0.390625,0 0.71875,-0.171875 1,-0.453125 -0.125,0.515625 -0.25,1.015625 -0.640625,1.546875 -0.265625,0.328125 -0.640625,0.625 -1.09375,0.625 -0.140625,0 -0.59375,-0.03125 -0.765625,-0.421875 0.15625,0 0.296875,0 0.421875,-0.125 C 1.328125,1.203125 1.421875,1.0625 1.421875,0.875 1.421875,0.5625 1.15625,0.53125 1.0625,0.53125 0.828125,0.53125 0.5,0.6875 0.5,1.171875 c 0,0.5 0.4375,0.875 1.0625,0.875 1.015625,0 2.046875,-0.90625 2.328125,-2.03125 z m 0,0"
                   id="id-fbdcbb93-e0d9-407c-bf6c-06f9b7d6bc40" />
              </symbol>
              <symbol
                 overflow="visible"
                 id="id-c20ff839-7058-4b92-b826-0b439336057b">
                <path
                   style="stroke:none;stroke-width:0"
                   d="m 4.671875,-3.703125 c 0,-0.546875 -0.265625,-0.703125 -0.4375,-0.703125 -0.25,0 -0.5,0.265625 -0.5,0.484375 0,0.125 0.046875,0.1875 0.15625,0.296875 0.21875,0.203125 0.34375,0.453125 0.34375,0.8125 0,0.421875 -0.609375,2.703125 -1.765625,2.703125 -0.515625,0 -0.75,-0.34375 -0.75,-0.875 0,-0.546875 0.28125,-1.28125 0.578125,-2.109375 0.078125,-0.171875 0.125,-0.3125 0.125,-0.5 0,-0.4375 -0.3125,-0.8125 -0.8125,-0.8125 -0.9375,0 -1.3125,1.453125 -1.3125,1.53125 0,0.109375 0.09375,0.109375 0.109375,0.109375 0.109375,0 0.109375,-0.03125 0.15625,-0.1875 0.296875,-1 0.71875,-1.234375 1.015625,-1.234375 0.078125,0 0.25,0 0.25,0.3125 0,0.25 -0.109375,0.53125 -0.171875,0.703125 -0.4375,1.15625 -0.5625,1.609375 -0.5625,2.046875 0,1.078125 0.875,1.234375 1.328125,1.234375 1.671875,0 2.25,-3.296875 2.25,-3.8125 z m 0,0"
                   id="id-29136eed-214d-4ba1-8c9e-8b7075e426b1" />
              </symbol>
              <symbol
                 overflow="visible"
                 id="id-8dc9f373-ac49-4877-b931-1d51bc08692b">
                <path
                   style="stroke:none;stroke-width:0"
                   d=""
                   id="id-b775b18a-406d-4b30-ac0d-54317d2d56b4" />
              </symbol>
              <symbol
                 overflow="visible"
                 id="id-d2257685-542b-45ec-94b5-b3a863836642">
                <path
                   style="stroke:none;stroke-width:0"
                   d="M 1.96875,-4.625 C 1.96875,-4.640625 2,-4.734375 2,-4.734375 2,-4.78125 1.96875,-4.84375 1.875,-4.84375 c -0.140625,0 -0.71875,0.0625 -0.890625,0.078125 -0.046875,0 -0.140625,0.015625 -0.140625,0.15625 0,0.09375 0.09375,0.09375 0.171875,0.09375 0.34375,0 0.34375,0.0625 0.34375,0.109375 0,0.046875 -0.015625,0.09375 -0.03125,0.15625 l -0.875,3.4375 C 0.4375,-0.734375 0.4375,-0.65625 0.4375,-0.59375 c 0,0.453125 0.390625,0.65625 0.71875,0.65625 0.171875,0 0.390625,-0.046875 0.5625,-0.359375 C 1.875,-0.5625 1.96875,-0.96875 1.96875,-1 c 0,-0.09375 -0.09375,-0.09375 -0.109375,-0.09375 -0.109375,0 -0.125,0.046875 -0.140625,0.171875 C 1.625,-0.578125 1.484375,-0.125 1.1875,-0.125 1,-0.125 0.953125,-0.296875 0.953125,-0.46875 0.953125,-0.546875 0.96875,-0.671875 1,-0.75 Z m 0,0"
                   id="id-9118ca8f-529d-4295-838e-4abcd13cb7f4" />
              </symbol>
              <symbol
                 overflow="visible"
                 id="id-fcda3d7a-a542-463d-a193-6824d9bfe581">
                <path
                   style="stroke:none;stroke-width:0"
                   d="m 1.640625,-1.40625 c 0,-0.046875 0.171875,-0.671875 0.171875,-0.703125 0.015625,-0.0625 0.21875,-0.40625 0.453125,-0.578125 0.0625,-0.046875 0.25,-0.1875 0.5625,-0.1875 0.0625,0 0.234375,0 0.375,0.09375 -0.21875,0.0625 -0.296875,0.265625 -0.296875,0.390625 0,0.140625 0.109375,0.25 0.265625,0.25 0.171875,0 0.390625,-0.125 0.390625,-0.421875 0,-0.359375 -0.375,-0.515625 -0.734375,-0.515625 -0.359375,0 -0.671875,0.15625 -0.984375,0.5 -0.125,-0.421875 -0.546875,-0.5 -0.71875,-0.5 -0.25,0 -0.421875,0.171875 -0.546875,0.359375 -0.15625,0.265625 -0.25,0.671875 -0.25,0.71875 0,0.078125 0.09375,0.078125 0.125,0.078125 0.09375,0 0.09375,-0.015625 0.140625,-0.203125 0.109375,-0.421875 0.25,-0.75 0.515625,-0.75 0.1875,0 0.234375,0.15625 0.234375,0.34375 0,0.125 -0.0625,0.390625 -0.125,0.578125 -0.046875,0.1875 -0.109375,0.46875 -0.140625,0.625 L 0.84375,-0.4375 C 0.828125,-0.34375 0.78125,-0.171875 0.78125,-0.15625 0.78125,0 0.90625,0.0625 1.015625,0.0625 1.125,0.0625 1.265625,0 1.3125,-0.125 1.328125,-0.171875 1.40625,-0.484375 1.453125,-0.65625 Z m 0,0"
                   id="id-036336c3-e3b3-4099-b81c-29c3b28a1095" />
              </symbol>
            </g>
          </defs>
          <g
             id="id-a1943157-6237-4a7c-94fc-afcf9ee3cf3d"
             transform="translate(-286.416,-142.314)"
             style="stroke-width:2.83643;stroke-miterlimit:4;stroke-dasharray:none">
            <g
               id="id-8011a507-2344-467f-b045-e3833d809c01"
               transform="matrix(2.9400867,0,0,2.9737929,-667.216,-331.61645)">
              <g
                 id="g1798"
                 transform="translate(96.973098,14.808761)"
                 inkscape:export-xdpi="96"
                 inkscape:export-ydpi="96">
                <g
                   style="fill:#000000;fill-opacity:1"
                   id="id-84bc742a-a04b-4d99-93cc-2bc7b9b890a6">
                  <g
                     transform="translate(304.50717,180.55036)"
                     id="g1636">
                    <path
                       style="stroke:none;stroke-width:0"
                       d="M 3.328125,-3.015625 C 3.390625,-3.265625 3.625,-4.1875 4.3125,-4.1875 c 0.046875,0 0.296875,0 0.5,0.125 C 4.53125,-4 4.34375,-3.765625 4.34375,-3.515625 c 0,0.15625 0.109375,0.34375 0.375,0.34375 0.21875,0 0.53125,-0.171875 0.53125,-0.578125 0,-0.515625 -0.578125,-0.65625 -0.921875,-0.65625 -0.578125,0 -0.921875,0.53125 -1.046875,0.75 -0.25,-0.65625 -0.78125,-0.75 -1.078125,-0.75 -1.03125,0 -1.609375,1.28125 -1.609375,1.53125 0,0.109375 0.109375,0.109375 0.125,0.109375 0.078125,0 0.109375,-0.03125 0.125,-0.109375 0.34375,-1.0625 1,-1.3125 1.34375,-1.3125 0.1875,0 0.53125,0.09375 0.53125,0.671875 0,0.3125 -0.171875,0.96875 -0.53125,2.375 -0.15625,0.609375 -0.515625,1.03125 -0.953125,1.03125 -0.0625,0 -0.28125,0 -0.5,-0.125 0.25,-0.0625 0.46875,-0.265625 0.46875,-0.546875 0,-0.265625 -0.21875,-0.34375 -0.359375,-0.34375 -0.3125,0 -0.546875,0.25 -0.546875,0.578125 0,0.453125 0.484375,0.65625 0.921875,0.65625 0.671875,0 1.03125,-0.703125 1.046875,-0.75 0.125,0.359375 0.484375,0.75 1.078125,0.75 1.03125,0 1.59375,-1.28125 1.59375,-1.53125 0,-0.109375 -0.078125,-0.109375 -0.109375,-0.109375 -0.09375,0 -0.109375,0.046875 -0.140625,0.109375 -0.328125,1.078125 -1,1.3125 -1.3125,1.3125 -0.390625,0 -0.546875,-0.3125 -0.546875,-0.65625 0,-0.21875 0.046875,-0.4375 0.15625,-0.875 z m 0,0"
                       id="id-b71e5bb2-420c-44e7-88a2-322d91fb509d" />
                  </g>
                </g>
                <g
                   style="fill:#000000;fill-opacity:1"
                   id="id-495bac30-710d-44e0-be5e-1349092de77d"
                   transform="translate(20.789173,33.83036)">
                  <g
                     transform="translate(289.412,148.214)"
                     id="g1640">
                    <path
                       style="stroke:none;stroke-width:0"
                       d="M 1.96875,-4.625 C 1.96875,-4.640625 2,-4.734375 2,-4.734375 2,-4.78125 1.96875,-4.84375 1.875,-4.84375 c -0.140625,0 -0.71875,0.0625 -0.890625,0.078125 -0.046875,0 -0.140625,0.015625 -0.140625,0.15625 0,0.09375 0.09375,0.09375 0.171875,0.09375 0.34375,0 0.34375,0.0625 0.34375,0.109375 0,0.046875 -0.015625,0.09375 -0.03125,0.15625 l -0.875,3.4375 C 0.4375,-0.734375 0.4375,-0.65625 0.4375,-0.59375 c 0,0.453125 0.390625,0.65625 0.71875,0.65625 0.171875,0 0.390625,-0.046875 0.5625,-0.359375 C 1.875,-0.5625 1.96875,-0.96875 1.96875,-1 c 0,-0.09375 -0.09375,-0.09375 -0.109375,-0.09375 -0.109375,0 -0.125,0.046875 -0.140625,0.171875 C 1.625,-0.578125 1.484375,-0.125 1.1875,-0.125 1,-0.125 0.953125,-0.296875 0.953125,-0.46875 0.953125,-0.546875 0.96875,-0.671875 1,-0.75 Z m 0,0"
                       id="id-51ed678d-29a0-41a5-99b0-b27179978c10" />
                  </g>
                </g>
              </g>
              <g
                 id="g1790"
                 transform="translate(-57.202506,39.319815)"
                 inkscape:export-xdpi="96"
                 inkscape:export-ydpi="96">
                <g
                   style="fill:#000000;fill-opacity:1"
                   id="id-20caab08-f756-4fe9-96a2-3b8b6d89d3b4"
                   transform="translate(77.087802,12.000203)">
                  <g
                     transform="translate(292.47,146.72)"
                     id="g1644">
                    <path
                       style="stroke:none;stroke-width:0"
                       d="m 4.84375,-3.796875 c 0.046875,-0.140625 0.046875,-0.15625 0.046875,-0.234375 0,-0.171875 -0.140625,-0.265625 -0.296875,-0.265625 -0.09375,0 -0.25,0.0625 -0.34375,0.203125 -0.015625,0.0625 -0.109375,0.359375 -0.140625,0.546875 -0.078125,0.25 -0.140625,0.53125 -0.203125,0.796875 l -0.453125,1.796875 c -0.03125,0.140625 -0.46875,0.84375 -1.125,0.84375 -0.5,0 -0.609375,-0.4375 -0.609375,-0.8125 C 1.71875,-1.375 1.890625,-2 2.21875,-2.875 2.375,-3.28125 2.421875,-3.390625 2.421875,-3.59375 c 0,-0.4375 -0.3125,-0.8125 -0.8125,-0.8125 -0.953125,0 -1.3125,1.453125 -1.3125,1.53125 0,0.109375 0.09375,0.109375 0.109375,0.109375 0.109375,0 0.109375,-0.03125 0.15625,-0.1875 0.28125,-0.9375 0.671875,-1.234375 1.015625,-1.234375 0.078125,0 0.25,0 0.25,0.3125 0,0.25 -0.109375,0.515625 -0.171875,0.703125 -0.40625,1.0625 -0.578125,1.625 -0.578125,2.09375 0,0.890625 0.625,1.1875 1.21875,1.1875 0.390625,0 0.71875,-0.171875 1,-0.453125 -0.125,0.515625 -0.25,1.015625 -0.640625,1.546875 -0.265625,0.328125 -0.640625,0.625 -1.09375,0.625 -0.140625,0 -0.59375,-0.03125 -0.765625,-0.421875 0.15625,0 0.296875,0 0.421875,-0.125 C 1.328125,1.203125 1.421875,1.0625 1.421875,0.875 1.421875,0.5625 1.15625,0.53125 1.0625,0.53125 0.828125,0.53125 0.5,0.6875 0.5,1.171875 c 0,0.5 0.4375,0.875 1.0625,0.875 1.015625,0 2.046875,-0.90625 2.328125,-2.03125 z m 0,0"
                       id="id-4459f9b6-60fa-4771-af5b-3bbee6d25c69" />
                  </g>
                </g>
                <g
                   style="fill:#000000;fill-opacity:1"
                   id="id-aff07ce0-6b49-4fee-b312-7f2424f8b8b4"
                   transform="translate(77.087802,12.000203)">
                  <g
                     transform="translate(297.354,148.214)"
                     id="g1648">
                    <path
                       style="stroke:none;stroke-width:0"
                       d="M 1.96875,-4.625 C 1.96875,-4.640625 2,-4.734375 2,-4.734375 2,-4.78125 1.96875,-4.84375 1.875,-4.84375 c -0.140625,0 -0.71875,0.0625 -0.890625,0.078125 -0.046875,0 -0.140625,0.015625 -0.140625,0.15625 0,0.09375 0.09375,0.09375 0.171875,0.09375 0.34375,0 0.34375,0.0625 0.34375,0.109375 0,0.046875 -0.015625,0.09375 -0.03125,0.15625 l -0.875,3.4375 C 0.4375,-0.734375 0.4375,-0.65625 0.4375,-0.59375 c 0,0.453125 0.390625,0.65625 0.71875,0.65625 0.171875,0 0.390625,-0.046875 0.5625,-0.359375 C 1.875,-0.5625 1.96875,-0.96875 1.96875,-1 c 0,-0.09375 -0.09375,-0.09375 -0.109375,-0.09375 -0.109375,0 -0.125,0.046875 -0.140625,0.171875 C 1.625,-0.578125 1.484375,-0.125 1.1875,-0.125 1,-0.125 0.953125,-0.296875 0.953125,-0.46875 0.953125,-0.546875 0.96875,-0.671875 1,-0.75 Z m 0,0"
                       id="id-9b273236-6b49-439c-a449-3d62d9d9a221" />
                  </g>
                </g>
              </g>
              <g
                 style="fill:#000000;fill-opacity:1"
                 id="id-347fe360-657f-4c90-9946-8fe412c94ba9"
                 transform="translate(67.790781,63.95853)"
                 inkscape:export-xdpi="96"
                 inkscape:export-ydpi="96">
                <g
                   transform="translate(319.505,146.72)"
                   id="g1668">
                  <path
                     style="stroke:none;stroke-width:0"
                     d="M 6.265625,-5.671875 C 6.75,-6.453125 7.171875,-6.484375 7.53125,-6.5 c 0.125,-0.015625 0.140625,-0.171875 0.140625,-0.1875 0,-0.078125 -0.0625,-0.125 -0.140625,-0.125 -0.25,0 -0.546875,0.03125 -0.8125,0.03125 -0.328125,0 -0.671875,-0.03125 -0.984375,-0.03125 -0.0625,0 -0.1875,0 -0.1875,0.1875 0,0.109375 0.078125,0.125 0.15625,0.125 0.265625,0.015625 0.453125,0.125 0.453125,0.328125 0,0.15625 -0.140625,0.375 -0.140625,0.375 l -3.0625,4.875 -0.6875,-5.28125 C 2.265625,-6.375 2.5,-6.5 2.953125,-6.5 c 0.140625,0 0.25,0 0.25,-0.203125 0,-0.078125 -0.078125,-0.109375 -0.125,-0.109375 -0.40625,0 -0.828125,0.03125 -1.25,0.03125 -0.171875,0 -0.359375,0 -0.546875,0 -0.171875,0 -0.359375,-0.03125 -0.53125,-0.03125 -0.078125,0 -0.1875,0 -0.1875,0.1875 0,0.125 0.078125,0.125 0.25,0.125 0.546875,0 0.5625,0.09375 0.59375,0.34375 L 2.1875,-0.015625 C 2.21875,0.1875 2.265625,0.21875 2.390625,0.21875 c 0.15625,0 0.203125,-0.046875 0.28125,-0.171875 z m 0,0"
                     id="id-8dccedff-a29b-470b-99f5-248fc94baddb" />
                </g>
              </g>
            </g>
          </g>
        </g>
      </g>
    </g>
  </g>
</svg>
